<svg width="177" height="58" viewBox="0 0 177 58" fill="none" xmlns="http://www.w3.org/2000/svg">
<path fill-rule="evenodd" clip-rule="evenodd" d="M31.2663 48.584L32.6663 53.0007H16.333L17.733 48.584H31.2663Z" fill="#139C94"/>
<path fill-rule="evenodd" clip-rule="evenodd" d="M21.6089 13.25H2.33041C1.02343 13.25 0 14.2461 0 15.4749V44.1501C0 45.3836 1.04336 46.375 2.33041 46.375H46.6696C47.9766 46.375 49 45.3789 49 44.1501V15.4749C49 14.2414 47.9566 13.25 46.6696 13.25H46.05C45.6997 14.054 45.2062 14.8017 44.5852 15.4583H46.6667V39.75H2.33333V15.4583H23.0647C22.4469 14.801 21.9565 14.0534 21.6089 13.25Z" fill="#304569"/>
<path d="M32.667 50.791H16.3337C15.6893 50.791 15.167 51.2854 15.167 51.8952C15.167 52.505 15.6893 52.9993 16.3337 52.9993H32.667C33.3113 52.9993 33.8337 52.505 33.8337 51.8952C33.8337 51.2854 33.3113 50.791 32.667 50.791Z" fill="#139C94"/>
<path d="M25.6663 10.3205C25.6663 11.2093 26.0437 12.0608 26.7137 12.6836C30.2972 16.015 32.799 17.685 33.8094 17.6656C34.8467 17.6457 37.3497 15.971 40.9358 12.6811C41.6158 12.0572 41.9997 11.1991 41.9997 10.3027V4.41536H37.333V2.20703H43.1663C43.8107 2.20703 44.333 2.70138 44.333 3.3112V10.3027C44.333 11.7967 43.6932 13.2269 42.5598 14.2668C38.5104 17.9817 35.7369 19.8374 33.8567 19.8735C31.9439 19.9102 29.1545 18.0481 25.0786 14.2591C23.962 13.221 23.333 11.8018 23.333 10.3204V3.3112C23.333 2.70138 23.8553 2.20703 24.4997 2.20703H30.333V4.41536H25.6663V10.3205Z" fill="#139C94"/>
<path fill-rule="evenodd" clip-rule="evenodd" d="M29.1667 0C29.811 0 30.3333 0.494352 30.3333 1.10417V5.52083C30.3333 6.13065 29.811 6.625 29.1667 6.625C28.5223 6.625 28 6.13065 28 5.52083V1.10417C28 0.494352 28.5223 0 29.1667 0Z" fill="#139C94"/>
<path fill-rule="evenodd" clip-rule="evenodd" d="M38.4997 0C37.8553 0 37.333 0.494352 37.333 1.10417V5.52083C37.333 6.13065 37.8553 6.625 38.4997 6.625C39.144 6.625 39.6663 6.13065 39.6663 5.52083V1.10417C39.6663 0.494352 39.144 0 38.4997 0Z" fill="#139C94"/>
<path d="M11.6663 29.8118V23.1868C11.6663 21.3574 13.2333 19.8743 15.1663 19.8743C17.0993 19.8743 18.6663 21.3574 18.6663 23.1868V27.6035C18.6663 31.8722 22.3227 35.3327 26.833 35.3327C31.3433 35.3327 34.9997 31.8722 34.9997 27.6035V18.7702C34.9997 18.1604 34.4773 17.666 33.833 17.666C33.1887 17.666 32.6663 18.1604 32.6663 18.7702V27.6035C32.6663 30.6526 30.0547 33.1243 26.833 33.1243C23.6113 33.1243 20.9997 30.6526 20.9997 27.6035V23.1868C20.9997 20.1378 18.388 17.666 15.1663 17.666C11.9447 17.666 9.33301 20.1378 9.33301 23.1868V29.8118C9.33301 30.4217 9.85534 30.916 10.4997 30.916C11.144 30.916 11.6663 30.4217 11.6663 29.8118Z" fill="#139C94"/>
<path d="M10.5 35.334C8.567 35.334 7 33.8509 7 32.0215C7 30.192 8.567 28.709 10.5 28.709C12.433 28.709 14 30.192 14 32.0215C14 33.8509 12.433 35.334 10.5 35.334Z" fill="#139C94"/>
<path d="M67.096 22.392C69.688 22.392 71.76 22.984 73.312 24.168C74.88 25.336 75.664 27.488 75.664 30.624C75.664 33.696 74.896 35.864 73.36 37.128C71.84 38.376 69.888 39 67.504 39H62.752V22.392H67.096ZM66.28 24.984V36.408H67.72C69.08 36.408 70.128 35.992 70.864 35.16C71.616 34.312 71.992 32.8 71.992 30.624C71.992 29.12 71.8 27.952 71.416 27.12C71.048 26.288 70.552 25.728 69.928 25.44C69.304 25.136 68.544 24.984 67.648 24.984H66.28ZM81.6974 26.28V39H78.2894V26.28H81.6974ZM79.9694 19.728C80.5774 19.728 81.0734 19.92 81.4574 20.304C81.8574 20.672 82.0574 21.144 82.0574 21.72C82.0574 22.296 81.8574 22.776 81.4574 23.16C81.0734 23.528 80.5774 23.712 79.9694 23.712C79.3614 23.712 78.8654 23.528 78.4814 23.16C78.0974 22.776 77.9054 22.296 77.9054 21.72C77.9054 21.144 78.0974 20.672 78.4814 20.304C78.8654 19.92 79.3614 19.728 79.9694 19.728ZM96.4388 26.976C95.6068 27.296 94.3828 27.456 92.7668 27.456C93.5668 27.808 94.1588 28.248 94.5428 28.776C94.9268 29.288 95.1188 29.936 95.1188 30.72C95.1188 31.536 94.9028 32.272 94.4708 32.928C94.0548 33.568 93.4468 34.072 92.6468 34.44C91.8628 34.808 90.9428 34.992 89.8868 34.992C89.3268 34.992 88.8308 34.936 88.3988 34.824C88.0788 35.032 87.9188 35.312 87.9188 35.664C87.9188 35.92 88.0148 36.128 88.2068 36.288C88.4148 36.432 88.8068 36.504 89.3828 36.504H91.3268C92.2708 36.504 93.0948 36.664 93.7988 36.984C94.5188 37.288 95.0708 37.72 95.4548 38.28C95.8548 38.824 96.0548 39.448 96.0548 40.152C96.0548 41.448 95.4948 42.456 94.3748 43.176C93.2708 43.912 91.6708 44.28 89.5748 44.28C88.0708 44.28 86.8788 44.12 85.9988 43.8C85.1348 43.496 84.5268 43.048 84.1748 42.456C83.8228 41.864 83.6468 41.12 83.6468 40.224H86.6948C86.6948 40.64 86.7748 40.968 86.9348 41.208C87.0948 41.464 87.3828 41.648 87.7988 41.76C88.2308 41.888 88.8468 41.952 89.6468 41.952C90.7508 41.952 91.5188 41.816 91.9508 41.544C92.3988 41.272 92.6228 40.888 92.6228 40.392C92.6228 39.944 92.4548 39.6 92.1188 39.36C91.7828 39.12 91.2868 39 90.6308 39H88.7588C87.4948 39 86.5508 38.768 85.9268 38.304C85.3028 37.824 84.9908 37.224 84.9908 36.504C84.9908 36.056 85.1188 35.624 85.3748 35.208C85.6468 34.776 86.0148 34.416 86.4788 34.128C85.6948 33.696 85.1188 33.192 84.7508 32.616C84.3988 32.024 84.2228 31.32 84.2228 30.504C84.2228 29.576 84.4468 28.768 84.8948 28.08C85.3588 27.376 85.9988 26.84 86.8148 26.472C87.6468 26.088 88.5908 25.896 89.6468 25.896C90.9588 25.928 92.0388 25.816 92.8868 25.56C93.7348 25.304 94.6388 24.904 95.5988 24.36L96.4388 26.976ZM89.7188 28.176C89.0788 28.176 88.5668 28.384 88.1828 28.8C87.8148 29.2 87.6308 29.752 87.6308 30.456C87.6308 31.176 87.8148 31.744 88.1828 32.16C88.5668 32.576 89.0868 32.784 89.7428 32.784C90.4308 32.784 90.9508 32.584 91.3028 32.184C91.6548 31.784 91.8308 31.192 91.8308 30.408C91.8308 28.92 91.1268 28.176 89.7188 28.176ZM101.526 26.28V39H98.1175V26.28H101.526ZM99.7975 19.728C100.406 19.728 100.902 19.92 101.286 20.304C101.686 20.672 101.886 21.144 101.886 21.72C101.886 22.296 101.686 22.776 101.286 23.16C100.902 23.528 100.406 23.712 99.7975 23.712C99.1895 23.712 98.6935 23.528 98.3095 23.16C97.9255 22.776 97.7335 22.296 97.7335 21.72C97.7335 21.144 97.9255 20.672 98.3095 20.304C98.6935 19.92 99.1895 19.728 99.7975 19.728ZM121.067 39H117.611L117.251 32.256C117.139 30.24 117.083 28.528 117.083 27.12C117.083 26.368 117.091 25.824 117.107 25.488L114.299 37.224H110.963L107.963 25.464C108.027 26.44 108.059 27.536 108.059 28.752C108.059 30.048 108.027 31.24 107.963 32.328L107.603 39H104.171L105.467 22.392H109.955L112.691 33.84L115.259 22.392H119.795L121.067 39ZM134.463 32.352C134.463 32.512 134.439 32.952 134.391 33.672H126.447C126.559 34.824 126.871 35.64 127.383 36.12C127.895 36.6 128.591 36.84 129.471 36.84C130.015 36.84 130.527 36.752 131.007 36.576C131.487 36.4 132.007 36.12 132.567 35.736L133.983 37.656C132.559 38.808 130.951 39.384 129.159 39.384C127.159 39.384 125.623 38.784 124.551 37.584C123.479 36.384 122.943 34.76 122.943 32.712C122.943 31.416 123.167 30.256 123.615 29.232C124.079 28.192 124.743 27.376 125.607 26.784C126.487 26.192 127.527 25.896 128.727 25.896C130.535 25.896 131.943 26.464 132.951 27.6C133.959 28.736 134.463 30.32 134.463 32.352ZM131.079 31.392C131.079 29.28 130.319 28.224 128.799 28.224C128.095 28.224 127.543 28.488 127.143 29.016C126.759 29.528 126.527 30.368 126.447 31.536H131.079V31.392ZM147.946 21.216V39H144.946L144.754 37.44C143.858 38.736 142.642 39.384 141.106 39.384C139.538 39.384 138.338 38.784 137.506 37.584C136.69 36.368 136.282 34.72 136.282 32.64C136.282 31.328 136.49 30.168 136.906 29.16C137.338 28.136 137.946 27.336 138.73 26.76C139.514 26.184 140.418 25.896 141.442 25.896C142.626 25.896 143.658 26.32 144.538 27.168V20.832L147.946 21.216ZM142.114 36.84C142.61 36.84 143.05 36.72 143.434 36.48C143.818 36.224 144.186 35.832 144.538 35.304V29.616C144.202 29.216 143.858 28.92 143.506 28.728C143.17 28.52 142.778 28.416 142.33 28.416C141.546 28.416 140.93 28.76 140.482 29.448C140.05 30.136 139.834 31.2 139.834 32.64C139.834 34.16 140.026 35.24 140.41 35.88C140.81 36.52 141.378 36.84 142.114 36.84ZM154.705 26.28V39H151.297V26.28H154.705ZM152.977 19.728C153.585 19.728 154.081 19.92 154.465 20.304C154.865 20.672 155.065 21.144 155.065 21.72C155.065 22.296 154.865 22.776 154.465 23.16C154.081 23.528 153.585 23.712 152.977 23.712C152.369 23.712 151.873 23.528 151.489 23.16C151.105 22.776 150.913 22.296 150.913 21.72C150.913 21.144 151.105 20.672 151.489 20.304C151.873 19.92 152.369 19.728 152.977 19.728ZM163.375 25.896C164.223 25.896 164.983 26.024 165.655 26.28C166.343 26.52 166.991 26.904 167.599 27.432L166.111 29.448C165.695 29.128 165.287 28.896 164.887 28.752C164.503 28.608 164.079 28.536 163.615 28.536C161.807 28.536 160.903 29.928 160.903 32.712C160.903 34.12 161.135 35.128 161.599 35.736C162.063 36.344 162.727 36.648 163.591 36.648C164.039 36.648 164.447 36.584 164.815 36.456C165.183 36.312 165.615 36.08 166.111 35.76L167.599 37.896C166.383 38.888 164.991 39.384 163.423 39.384C162.175 39.384 161.087 39.112 160.159 38.568C159.247 38.024 158.543 37.256 158.047 36.264C157.551 35.256 157.303 34.08 157.303 32.736C157.303 31.392 157.551 30.208 158.047 29.184C158.543 28.144 159.247 27.336 160.159 26.76C161.087 26.184 162.159 25.896 163.375 25.896Z" fill="#064B4F"/>
</svg>
