<svg width="200" height="74" viewBox="0 0 200 74" fill="none" xmlns="http://www.w3.org/2000/svg">
<path fill-rule="evenodd" clip-rule="evenodd" d="M39.0833 65.0833L40.8333 71H20.4166L22.1666 65.0833H39.0833Z" fill="#139C94"/>
<path fill-rule="evenodd" clip-rule="evenodd" d="M27.0112 17.75H2.91301C1.27929 17.75 0 19.0844 0 20.7305V59.1445C0 60.7969 1.3042 62.125 2.91301 62.125H58.337C59.9707 62.125 61.25 60.7906 61.25 59.1445V20.7305C61.25 19.0781 59.9458 17.75 58.337 17.75H57.5624C57.1246 18.827 56.5078 19.8287 55.7315 20.7083H58.3333V53.25H2.91667V20.7083H28.8309C28.0586 19.8278 27.4456 18.8262 27.0112 17.75Z" fill="#94127F"/>
<path d="M40.8334 68.0417H20.4167C19.6113 68.0417 18.9584 68.7039 18.9584 69.5209C18.9584 70.3378 19.6113 71 20.4167 71H40.8334C41.6388 71 42.2917 70.3378 42.2917 69.5209C42.2917 68.7039 41.6388 68.0417 40.8334 68.0417Z" fill="#139C94"/>
<path d="M32.0833 13.8266C32.0833 15.0173 32.555 16.158 33.3925 16.9924C37.8719 21.4551 40.9991 23.6923 42.2621 23.6663C43.5587 23.6397 46.6874 21.3962 51.1701 16.9891C52.0201 16.1532 52.5 15.0036 52.5 13.8028V5.91604H46.6666V2.9577H53.9583C54.7637 2.9577 55.4166 3.61995 55.4166 4.43687V13.8028C55.4166 15.8042 54.6169 17.7201 53.2001 19.1132C48.1383 24.0898 44.6714 26.5757 42.3212 26.6241C39.9303 26.6732 36.4434 24.1788 31.3487 19.1029C29.9528 17.7123 29.1666 15.8111 29.1666 13.8266V4.43687C29.1666 3.61995 29.8195 2.9577 30.625 2.9577H37.9166V5.91604H32.0833V13.8266Z" fill="#139C94"/>
<path fill-rule="evenodd" clip-rule="evenodd" d="M36.4583 0C37.2637 0 37.9167 0.662245 37.9167 1.47917V7.39583C37.9167 8.21275 37.2637 8.875 36.4583 8.875C35.6529 8.875 35 8.21275 35 7.39583V1.47917C35 0.662245 35.6529 0 36.4583 0Z" fill="#139C94"/>
<path fill-rule="evenodd" clip-rule="evenodd" d="M48.125 0C47.3195 0 46.6666 0.662245 46.6666 1.47917V7.39583C46.6666 8.21275 47.3195 8.875 48.125 8.875C48.9304 8.875 49.5833 8.21275 49.5833 7.39583V1.47917C49.5833 0.662245 48.9304 0 48.125 0Z" fill="#139C94"/>
<path d="M14.5833 39.9375V31.0625C14.5833 28.6118 16.542 26.625 18.9583 26.625C21.3745 26.625 23.3333 28.6118 23.3333 31.0625V36.9792C23.3333 42.6976 27.9037 47.3334 33.5416 47.3334C39.1795 47.3334 43.75 42.6976 43.75 36.9792V25.1459C43.75 24.3289 43.097 23.6667 42.2916 23.6667C41.4862 23.6667 40.8333 24.3289 40.8333 25.1459V36.9792C40.8333 41.0638 37.5687 44.375 33.5416 44.375C29.5145 44.375 26.25 41.0638 26.25 36.9792V31.0625C26.25 26.9779 22.9854 23.6667 18.9583 23.6667C14.9312 23.6667 11.6666 26.9779 11.6666 31.0625V39.9375C11.6666 40.7544 12.3195 41.4167 13.125 41.4167C13.9304 41.4167 14.5833 40.7544 14.5833 39.9375Z" fill="#139C94"/>
<path d="M13.125 47.3333C10.7088 47.3333 8.75 45.3466 8.75 42.8958C8.75 40.445 10.7088 38.4583 13.125 38.4583C15.5412 38.4583 17.5 40.445 17.5 42.8958C17.5 45.3466 15.5412 47.3333 13.125 47.3333Z" fill="#139C94"/>
<path d="M89.064 51H84.6L84.135 42.289C83.9903 39.685 83.918 37.4737 83.918 35.655C83.918 34.6837 83.9283 33.981 83.949 33.547L80.322 48.706H76.013L72.138 33.516C72.2207 34.7767 72.262 36.1923 72.262 37.763C72.262 39.437 72.2207 40.9767 72.138 42.382L71.673 51H67.24L68.914 29.548H74.711L78.245 44.335L81.562 29.548H87.421L89.064 51ZM106.368 42.413C106.368 42.6197 106.337 43.188 106.275 44.118H96.0136C96.1582 45.606 96.5612 46.66 97.2226 47.28C97.8839 47.9 98.7829 48.21 99.9196 48.21C100.622 48.21 101.284 48.0963 101.904 47.869C102.524 47.6417 103.195 47.28 103.919 46.784L105.748 49.264C103.908 50.752 101.831 51.496 99.5166 51.496C96.9332 51.496 94.9492 50.721 93.5646 49.171C92.1799 47.621 91.4876 45.5233 91.4876 42.878C91.4876 41.204 91.7769 39.7057 92.3556 38.383C92.9549 37.0397 93.8126 35.9857 94.9286 35.221C96.0652 34.4563 97.4086 34.074 98.9586 34.074C101.294 34.074 103.113 34.8077 104.415 36.275C105.717 37.7423 106.368 39.7883 106.368 42.413ZM101.997 41.173C101.997 38.445 101.015 37.081 99.0516 37.081C98.1422 37.081 97.4292 37.422 96.9126 38.104C96.4166 38.7653 96.1169 39.8503 96.0136 41.359H101.997V41.173ZM123.783 28.029V51H119.908L119.66 48.985C118.502 50.659 116.932 51.496 114.948 51.496C112.922 51.496 111.372 50.721 110.298 49.171C109.244 47.6003 108.717 45.4717 108.717 42.785C108.717 41.0903 108.985 39.592 109.523 38.29C110.081 36.9673 110.866 35.934 111.879 35.19C112.891 34.446 114.059 34.074 115.382 34.074C116.911 34.074 118.244 34.6217 119.381 35.717V27.533L123.783 28.029ZM116.25 48.21C116.89 48.21 117.459 48.055 117.955 47.745C118.451 47.4143 118.926 46.908 119.381 46.226V38.879C118.947 38.3623 118.502 37.98 118.048 37.732C117.614 37.4633 117.107 37.329 116.529 37.329C115.516 37.329 114.72 37.7733 114.142 38.662C113.584 39.5507 113.305 40.925 113.305 42.785C113.305 44.7483 113.553 46.1433 114.049 46.97C114.565 47.7967 115.299 48.21 116.25 48.21ZM132.513 34.57V51H128.111V34.57H132.513ZM130.281 26.107C131.067 26.107 131.707 26.355 132.203 26.851C132.72 27.3263 132.978 27.936 132.978 28.68C132.978 29.424 132.72 30.044 132.203 30.54C131.707 31.0153 131.067 31.253 130.281 31.253C129.496 31.253 128.855 31.0153 128.359 30.54C127.863 30.044 127.615 29.424 127.615 28.68C127.615 27.936 127.863 27.3263 128.359 26.851C128.855 26.355 129.496 26.107 130.281 26.107Z" fill="#94127F"/>
<path d="M143.587 29.548C146.377 29.548 148.537 30.1267 150.066 31.284C151.616 32.4413 152.391 34.167 152.391 36.461C152.391 38.8583 151.627 40.6667 150.097 41.886C148.568 43.0847 146.522 43.684 143.959 43.684H141.51V51H136.953V29.548H143.587ZM143.587 40.336C144.91 40.336 145.923 40.0363 146.625 39.437C147.328 38.8377 147.679 37.8457 147.679 36.461C147.679 34.043 146.295 32.834 143.525 32.834H141.51V40.336H143.587ZM159.086 51.496C157.743 51.496 156.699 51.1137 155.955 50.349C155.211 49.5637 154.839 48.458 154.839 47.032V28.029L159.241 27.533V46.908C159.241 47.6313 159.541 47.993 160.14 47.993C160.471 47.993 160.76 47.931 161.008 47.807L161.907 50.938C161.06 51.31 160.12 51.496 159.086 51.496ZM177.621 51H173.808L173.591 48.799C173.012 49.7083 172.31 50.3903 171.483 50.845C170.656 51.279 169.695 51.496 168.6 51.496C167.112 51.496 165.975 51.0517 165.19 50.163C164.405 49.2537 164.012 47.993 164.012 46.381V34.57H168.414V45.823C168.414 46.691 168.559 47.311 168.848 47.683C169.137 48.0343 169.592 48.21 170.212 48.21C171.39 48.21 172.392 47.497 173.219 46.071V34.57H177.621V51ZM187.424 34.074C189.739 34.074 191.723 34.7353 193.376 36.058L191.702 38.569C190.317 37.701 188.953 37.267 187.61 37.267C186.887 37.267 186.329 37.4013 185.936 37.67C185.543 37.9387 185.347 38.3003 185.347 38.755C185.347 39.0857 185.43 39.3647 185.595 39.592C185.781 39.8193 186.112 40.0363 186.587 40.243C187.083 40.4497 187.817 40.6977 188.788 40.987C190.524 41.4623 191.816 42.103 192.663 42.909C193.51 43.6943 193.934 44.7793 193.934 46.164C193.934 47.2593 193.614 48.21 192.973 49.016C192.353 49.822 191.506 50.442 190.431 50.876C189.356 51.2893 188.158 51.496 186.835 51.496C185.45 51.496 184.19 51.2893 183.053 50.876C181.916 50.442 180.945 49.853 180.139 49.109L182.309 46.691C183.694 47.7657 185.161 48.303 186.711 48.303C187.538 48.303 188.189 48.148 188.664 47.838C189.16 47.5073 189.408 47.063 189.408 46.505C189.408 46.071 189.315 45.73 189.129 45.482C188.943 45.234 188.602 45.0067 188.106 44.8C187.61 44.5727 186.835 44.3143 185.781 44.025C184.128 43.5703 182.898 42.9297 182.092 42.103C181.307 41.2557 180.914 40.212 180.914 38.972C180.914 38.042 181.183 37.205 181.72 36.461C182.257 35.717 183.012 35.1383 183.983 34.725C184.975 34.291 186.122 34.074 187.424 34.074Z" fill="#139C94"/>
</svg>
