<svg width="1059" height="848" viewBox="0 0 1059 848" fill="none" xmlns="http://www.w3.org/2000/svg">
<path d="M609.02 94.2129C609.01 94.4698 608.98 94.7252 608.931 94.9761C608.857 95.4679 608.708 96.1972 608.59 97.1639C608.187 99.9692 607.949 102.802 607.878 105.644C607.76 110.149 608.088 114.655 608.856 119.076C609.898 124.921 611.761 130.534 614.372 135.697C617.695 141.855 621.339 147.779 625.284 153.437C629.796 160.029 633.484 167.306 636.241 175.061C639.22 183.673 640.924 192.792 641.282 202.045C642.041 222.144 635.797 241.766 623.92 256.605C618.483 263.468 611.939 269.066 604.646 273.09C597.722 276.991 590.827 279.874 584.748 283.266C579.029 286.352 573.849 290.605 569.462 295.816C563.153 303.464 558.772 312.923 556.785 323.19C556.385 324.988 556.237 326.582 556.014 328.04C555.792 329.499 555.762 330.669 555.718 331.636C555.673 332.603 555.718 333.332 555.614 333.858C555.63 334.112 555.63 334.367 555.614 334.621C555.597 334.367 555.597 334.112 555.614 333.858C555.614 333.315 555.614 332.569 555.614 331.636C555.614 330.703 555.762 329.448 555.851 328.006C555.94 326.565 556.178 324.937 556.548 323.122C557.347 318.674 558.612 314.352 560.314 310.249C562.554 304.801 565.526 299.788 569.121 295.392C573.522 290.09 578.739 285.761 584.511 282.621C590.635 279.06 597.529 276.194 604.394 272.31C611.561 268.339 617.998 262.835 623.357 256.096C635.087 241.395 641.254 221.981 640.511 202.095C640.17 192.935 638.502 183.902 635.574 175.366C632.847 167.677 629.211 160.453 624.765 153.895C620.827 148.192 617.193 142.223 613.883 136.019C611.268 130.786 609.424 125.096 608.427 119.178C607.673 114.71 607.384 110.156 607.567 105.61C607.665 102.763 607.953 99.9277 608.427 97.13C608.575 96.1633 608.738 95.434 608.842 94.9591L609.02 94.2129Z" fill="#E0E0E0"/>
<path d="M671.381 106.17C670.562 109.985 669.542 113.74 668.327 117.414C666.964 121.755 665.308 125.969 663.374 130.016C660.89 135.46 657.582 140.358 653.604 144.483C652.451 145.634 651.228 146.689 649.941 147.637C648.607 148.57 647.213 149.435 645.775 150.283L636.805 155.54C630.608 159.17 623.95 162.969 617.13 167.412C610.027 171.956 603.658 177.858 598.3 184.864C592.522 192.406 588.184 201.244 585.564 210.813C582.99 220.401 582.362 230.534 583.726 240.442C584.962 249.681 588.097 258.452 592.874 266.035C597.455 273.243 602.852 279.179 607.167 285.471C609.301 288.472 611.183 291.698 612.786 295.104C614.224 298.269 615.391 301.587 616.27 305.009C617.748 310.909 618.389 317.041 618.168 323.173C617.998 327.779 617.305 332.34 616.107 336.741C615.364 339.532 614.411 342.245 613.26 344.848C612.86 345.696 612.534 346.357 612.311 346.849C612.089 347.341 611.956 347.511 611.956 347.511C611.956 347.511 612.045 347.256 612.237 346.798C612.43 346.341 612.741 345.628 613.127 344.78C614.206 342.155 615.108 339.439 615.825 336.656C616.964 332.246 617.602 327.685 617.723 323.088C617.896 317.07 617.23 311.059 615.751 305.28C614.864 301.902 613.693 298.63 612.252 295.511C610.659 292.154 608.787 288.979 606.662 286.031C602.363 279.806 596.951 273.904 592.295 266.612C587.436 258.934 584.24 250.046 582.969 240.68C581.587 230.642 582.221 220.376 584.823 210.661C587.482 200.974 591.875 192.027 597.722 184.389C603.136 177.254 609.587 171.241 616.789 166.615C623.639 162.257 630.311 158.492 636.523 154.896L645.493 149.672C646.976 148.841 648.34 147.976 649.645 147.077C650.908 146.153 652.112 145.127 653.248 144.008C657.197 139.948 660.498 135.133 663.004 129.778C664.95 125.765 666.635 121.593 668.045 117.296C669.231 113.768 670.017 110.97 670.551 109.07C670.803 108.154 671.01 107.374 671.144 106.899C671.277 106.424 671.381 106.17 671.381 106.17Z" fill="#E0E0E0"/>
<path d="M647.926 148.62C647.926 148.858 640.72 147.365 631.942 145.228C623.165 143.091 616.078 141.294 616.122 141.056C616.167 140.819 623.313 142.294 632.105 144.448C640.898 146.602 647.926 148.366 647.926 148.62Z" fill="#E0E0E0"/>
<path d="M658.792 136.884C658.792 137.121 647.717 133.627 634.18 129.099C620.643 124.571 609.731 120.619 609.79 120.449C609.85 120.28 620.866 123.706 634.403 128.251C647.939 132.796 658.852 136.646 658.792 136.884Z" fill="#E0E0E0"/>
<path d="M666.755 121.501C666.755 121.721 653.485 117.397 637.265 111.817C621.044 106.237 607.893 101.522 607.982 101.285C608.071 101.047 621.237 105.389 637.546 110.969C653.856 116.549 666.814 121.264 666.755 121.501Z" fill="#E0E0E0"/>
<path d="M616.211 264.22C616.137 264.458 609.05 261.557 600.376 257.741C591.702 253.925 584.749 250.652 584.823 250.432C584.897 250.211 591.984 253.111 600.658 256.91C609.331 260.709 616.285 264 616.211 264.22Z" fill="#E0E0E0"/>
<path d="M630.133 245.92C629.487 245.813 628.852 245.637 628.235 245.394C627.019 245.021 625.27 244.41 623.135 243.698C618.865 242.155 612.993 239.882 606.573 237.135C600.153 234.387 594.401 231.724 590.264 229.706C588.203 228.688 586.542 227.84 585.401 227.23C584.796 226.947 584.215 226.601 583.666 226.195C584.303 226.362 584.924 226.601 585.519 226.908L590.471 229.112C594.638 230.995 600.405 233.573 606.781 236.32C613.156 239.068 619.028 241.408 623.253 243.104L628.265 245.14C628.907 245.332 629.533 245.593 630.133 245.92Z" fill="#E0E0E0"/>
<path d="M638.125 226.196C637.42 225.979 636.734 225.684 636.079 225.314L630.593 222.719C625.967 220.514 619.547 217.529 612.386 214.477C605.225 211.424 598.657 208.88 593.897 207.082L588.248 204.945C587.547 204.722 586.862 204.432 586.202 204.08C586.928 204.179 587.643 204.36 588.337 204.623C589.701 205.03 591.644 205.657 594.06 206.488C598.864 208.184 605.462 210.593 612.653 213.646C619.844 216.698 626.234 219.785 630.816 222.126C633.099 223.296 634.938 224.279 636.198 224.992C636.873 225.321 637.518 225.725 638.125 226.196Z" fill="#E0E0E0"/>
<path d="M638.229 201.502C637.668 201.409 637.119 201.232 636.598 200.976L632.269 199.28C628.607 197.822 623.565 195.888 617.946 193.734C612.327 191.58 607.226 189.867 603.52 188.646L599.072 187.103C598.523 186.95 597.991 186.728 597.485 186.441C598.049 186.474 598.607 186.588 599.146 186.781C600.213 187.035 601.726 187.476 603.594 188.036C607.345 189.172 612.49 190.851 618.109 192.954C623.729 195.057 628.77 197.143 632.387 198.754C634.181 199.551 635.634 200.23 636.628 200.722C637.186 200.909 637.724 201.171 638.229 201.502Z" fill="#E0E0E0"/>
<path d="M638.435 182.321C633.763 180.964 629.155 179.327 624.632 177.419C620.027 175.783 615.503 173.864 611.08 171.67C615.752 173.033 620.359 174.669 624.884 176.571C629.486 178.215 634.009 180.134 638.435 182.321Z" fill="#E0E0E0"/>
<path d="M615.307 301.464C614.799 301.376 614.302 301.222 613.824 301.007L609.91 299.497L597.04 294.409L584.141 289.457L580.227 287.913C579.736 287.758 579.263 287.536 578.818 287.252C579.324 287.286 579.823 287.401 580.301 287.591C581.25 287.863 582.614 288.287 584.289 288.846C587.64 289.966 592.236 291.611 597.278 293.578C602.319 295.545 606.841 297.445 610.088 298.903C611.719 299.633 613.053 300.243 613.913 300.599C614.414 300.802 614.885 301.094 615.307 301.464Z" fill="#E0E0E0"/>
<path d="M617.991 323.937C617.917 324.157 605.729 319.646 590.769 313.761C575.809 307.876 563.725 303.059 563.799 302.821C563.873 302.584 576.046 307.112 591.021 312.997C605.996 318.883 618.05 323.614 617.991 323.937Z" fill="#E0E0E0"/>
<path d="M617.739 340.506C617.739 340.744 604.069 336.165 587.359 330.33C570.649 324.496 557.127 319.51 557.187 319.273C557.246 319.035 570.857 323.614 587.581 329.449C604.306 335.283 617.813 340.269 617.739 340.506Z" fill="#E0E0E0"/>
<path d="M371.853 199.416C371.853 199.416 371.452 199.416 370.681 199.416L367.271 199.569C364.306 199.67 359.858 199.823 354.164 199.925C351.318 199.925 348.145 199.925 344.675 199.925C342.854 199.952 341.035 199.758 339.249 199.348C337.432 198.513 335.655 197.567 333.926 196.516C332.036 195.563 329.948 195.245 327.906 195.6C327.387 195.685 326.854 195.838 326.335 195.956C325.837 196.141 325.37 196.422 324.956 196.787C324.091 197.58 323.336 198.518 322.717 199.569C320.142 204.235 318.047 209.226 316.475 214.443C314.666 219.887 313.065 225.687 311.152 231.691C310.915 232.437 310.648 233.183 310.366 233.93L310.129 234.489C310.09 234.601 310.035 234.704 309.966 234.795C309.921 234.885 309.856 234.96 309.778 235.013C309.7 235.067 309.612 235.096 309.521 235.1C308.987 234.947 309.062 234.642 308.928 234.455C308.851 234.258 308.786 234.054 308.735 233.845C308.378 232.239 308.115 230.607 307.95 228.96C307.564 225.687 307.268 222.329 306.986 218.92C305.904 205.352 305.044 190.665 303.887 175.333C303.279 167.667 302.731 159.781 301.559 151.877C301.396 150.894 301.233 149.91 300.996 148.943C300.891 148.487 300.747 148.044 300.566 147.62C300.358 147.213 300.18 147.027 299.958 147.145C299.315 147.691 298.805 148.414 298.475 149.248C298.049 150.129 297.663 151.035 297.319 151.962C295.896 155.81 294.644 159.739 293.568 163.732C291.388 171.72 289.461 179.946 287.637 188.324L286.94 191.479C286.745 192.569 286.478 193.641 286.14 194.684C285.72 195.758 285.063 196.688 284.234 197.384C283.405 198.08 282.431 198.517 281.41 198.653C279.423 198.738 277.57 198.856 275.583 198.806C273.615 198.723 271.661 198.393 269.756 197.822C267.342 197.107 265.015 196.047 262.832 194.667C261.831 193.926 260.762 193.312 259.644 192.836C259.148 192.606 258.605 192.545 258.079 192.659C257.553 192.773 257.067 193.058 256.679 193.48C255.977 194.545 255.472 195.763 255.196 197.059C254.826 198.365 254.5 199.687 254.173 201.01C253.551 203.656 252.958 206.319 252.379 208.965C251.193 214.256 250.066 219.48 248.599 224.636C248.541 224.831 248.456 225.014 248.347 225.178C248.255 225.334 248.116 225.445 247.957 225.489C247.798 225.533 247.63 225.507 247.487 225.416C247.192 225.162 246.971 224.813 246.849 224.415C246.614 223.781 246.416 223.129 246.256 222.465C245.945 221.159 245.693 219.87 245.455 218.564C244.981 215.969 244.581 213.374 244.21 210.796C242.727 200.502 241.511 190.444 240.207 180.658C239.554 175.791 238.917 170.974 238.057 166.327C237.868 165.169 237.585 164.033 237.212 162.935C236.945 161.985 235.996 163.122 235.432 163.953C234.267 165.831 233.231 167.81 232.334 169.872C228.672 178.046 225.706 186.255 222.4 193.87C221.606 195.784 220.679 197.622 219.627 199.365C219.349 199.875 218.916 200.249 218.411 200.417C217.922 200.529 217.418 200.529 216.929 200.417C216.039 200.058 215.25 199.431 214.646 198.602C214.064 197.907 213.382 197.334 212.629 196.906C211.907 196.479 211.098 196.28 210.286 196.329C208.682 196.761 207.214 197.695 206.046 199.026C205.382 199.685 204.588 200.15 203.733 200.383C203.276 200.472 202.806 200.426 202.369 200.247C201.976 200.038 201.616 199.758 201.302 199.416C200.162 198.103 199.125 196.679 198.203 195.159C197.269 193.701 196.379 192.259 195.445 190.902C194.583 189.571 193.525 188.423 192.317 187.51C191.101 186.594 189.752 187.748 188.669 188.63C187.613 189.606 186.621 190.672 185.704 191.818C183.924 193.971 182.251 196.235 180.693 198.602V198.704H180.589L153.5 198.585H146.339H144.501C144.293 198.6 144.085 198.6 143.878 198.585H144.501H146.339H153.5L180.589 198.466L180.426 198.568C181.981 196.161 183.654 193.856 185.437 191.665C186.386 190.486 187.417 189.397 188.521 188.409C189.09 187.88 189.718 187.441 190.389 187.103C190.757 186.933 191.149 186.841 191.546 186.832C191.95 186.858 192.342 186.998 192.687 187.239C193.967 188.197 195.083 189.416 195.979 190.834C196.928 192.208 197.832 193.65 198.766 195.091C199.64 196.578 200.633 197.969 201.732 199.246C202.009 199.542 202.324 199.788 202.666 199.976C203.004 200.107 203.367 200.137 203.718 200.061C204.481 199.841 205.188 199.417 205.779 198.822C207.003 197.42 208.543 196.434 210.227 195.973C211.142 195.958 212.049 196.171 212.884 196.599C213.719 197.027 214.462 197.658 215.061 198.449C215.586 199.213 216.283 199.8 217.077 200.145C217.478 200.239 217.892 200.239 218.293 200.145C218.56 200.145 218.871 199.721 219.123 199.331C220.147 197.625 221.05 195.827 221.822 193.955C225.098 186.374 228.049 178.165 231.726 169.923C232.63 167.813 233.687 165.794 234.884 163.885C235.207 163.373 235.597 162.921 236.04 162.545C236.172 162.417 236.326 162.32 236.492 162.262C236.657 162.204 236.832 162.184 237.004 162.206C237.182 162.253 237.349 162.346 237.49 162.478C237.631 162.611 237.744 162.779 237.82 162.969C238.202 164.016 238.499 165.1 238.709 166.208C239.584 170.906 240.192 175.723 240.889 180.607C242.208 190.359 243.424 200.451 244.922 210.728C245.292 213.306 245.693 215.816 246.167 218.462C246.404 219.751 246.656 221.023 246.953 222.295C247.102 222.918 247.285 223.53 247.501 224.127C247.576 224.352 247.686 224.559 247.828 224.737C247.753 224.737 247.828 224.992 247.828 224.839C247.889 224.742 247.935 224.633 247.961 224.517C249.444 219.429 250.541 214.222 251.712 208.948C252.29 206.302 252.869 203.639 253.506 200.976C253.832 199.654 254.159 198.314 254.544 196.991C254.722 196.329 254.93 195.668 255.137 195.006C255.36 194.298 255.702 193.647 256.145 193.09C256.613 192.498 257.248 192.114 257.939 192.005C258.601 191.891 259.278 191.961 259.911 192.208C261.09 192.686 262.215 193.324 263.262 194.108C265.389 195.452 267.656 196.483 270.008 197.177C271.862 197.721 273.76 198.039 275.672 198.127C277.54 198.127 279.527 198.127 281.38 197.974C282.263 197.859 283.106 197.486 283.827 196.893C284.549 196.299 285.125 195.503 285.502 194.582C285.817 193.587 286.07 192.567 286.258 191.53L286.955 188.375C288.823 179.895 290.766 171.737 292.96 163.732C294.072 159.73 295.199 155.778 296.637 151.962C297.008 151.012 297.393 150.079 297.838 149.164C298.075 148.706 298.312 148.265 298.594 147.824C298.89 147.34 299.288 146.95 299.75 146.687C299.911 146.617 300.084 146.593 300.255 146.616C300.425 146.64 300.588 146.711 300.729 146.823C300.955 147.015 301.138 147.265 301.263 147.552C301.478 148.032 301.642 148.538 301.752 149.062C301.989 150.062 302.167 151.063 302.33 152.064C303.502 160.052 304.035 167.921 304.643 175.587C305.785 190.953 306.615 205.556 307.609 219.191C307.89 222.583 308.172 225.975 308.543 229.215C308.701 230.821 308.953 232.413 309.299 233.981C309.344 234.159 309.399 234.335 309.462 234.506C309.486 234.577 309.515 234.646 309.551 234.71C309.551 234.71 309.477 234.71 309.551 234.846C309.625 234.981 309.551 234.659 309.477 234.71C309.518 234.641 309.553 234.567 309.581 234.489L309.803 233.964C310.085 233.251 310.337 232.505 310.589 231.759C312.487 225.806 314.118 219.989 315.956 214.544C317.553 209.281 319.683 204.249 322.302 199.552C322.961 198.464 323.755 197.493 324.659 196.669C325.101 196.267 325.604 195.963 326.142 195.77C326.68 195.618 327.224 195.499 327.773 195.414C329.892 195.049 332.057 195.384 334.015 196.38C335.898 197.313 337.514 198.619 339.278 199.246C341.037 199.638 342.825 199.831 344.616 199.823C348.071 199.925 351.243 199.823 354.09 199.823L367.197 199.62H370.607C371.452 199.399 371.853 199.416 371.853 199.416Z" fill="#E0E0E0"/>
<path d="M865.207 348.714L889.901 354.492L858.341 530.986C858.035 532.696 857.148 534.197 855.875 535.159C854.602 536.121 853.047 536.465 851.552 536.115L838.101 532.968C836.606 532.618 835.294 531.603 834.453 530.147C833.613 528.691 833.312 526.912 833.618 525.202L865.178 348.707L865.207 348.714Z" fill="#E0E0E0"/>
<path d="M859.749 379.589L884.444 385.362L861.787 512.179C861.482 513.889 860.595 515.39 859.322 516.352C858.049 517.314 856.494 517.658 854.999 517.309L841.548 514.164C840.053 513.815 838.74 512.801 837.899 511.344C837.058 509.888 836.758 508.11 837.063 506.4L859.72 379.582L859.749 379.589Z" fill="#F5F5F5"/>
<path d="M886.793 372.32L870.32 368.469L855.338 452.333L871.811 456.183L886.793 372.32Z" fill="white"/>
<path d="M851.628 536.038C852.718 536.219 853.831 536.079 854.86 535.631C856.097 535.057 857.12 534.008 857.751 532.663C858.116 531.789 858.361 530.857 858.478 529.898C858.656 528.864 858.834 527.761 859.041 526.608C860.687 517.28 863.044 503.797 865.995 487.04C871.926 453.477 880.258 406.82 889.584 354.328L889.881 354.837L870.814 350.394L865.179 349.071L865.639 348.732C855.557 404.818 846.498 455.291 839.944 491.789C838.299 500.897 836.801 509.122 835.496 516.364C835.17 518.162 834.844 519.909 834.547 521.588C834.399 522.419 834.236 523.284 834.103 524.064C833.925 524.83 833.816 525.614 833.776 526.405C833.771 527.882 834.205 529.317 835.007 530.475C835.745 531.52 836.751 532.273 837.883 532.629L848.084 535.122L850.738 535.783C851.331 535.936 851.628 536.038 851.628 536.038L850.723 535.868L848.055 535.292L837.809 532.951C836.539 532.576 835.414 531.73 834.609 530.546C833.804 529.361 833.366 527.905 833.361 526.405C833.391 525.58 833.495 524.762 833.673 523.962C833.806 523.165 833.954 522.266 834.103 521.503C834.399 519.807 834.696 518.111 835.022 516.263C836.297 509.021 837.75 500.778 839.366 491.654C845.86 455.156 854.83 404.666 864.824 348.545V348.121L865.194 348.206L870.843 349.529L889.91 353.989L890.281 354.074V354.498C880.851 406.989 872.489 453.612 866.44 487.159L859.264 526.659C859.041 527.829 858.848 528.915 858.656 529.949C858.529 530.936 858.264 531.892 857.87 532.782C857.221 534.15 856.171 535.213 854.904 535.783C854.125 536.124 853.29 536.263 852.458 536.191C852.178 536.171 851.899 536.12 851.628 536.038Z" fill="#E0E0E0"/>
<path d="M872.305 311.813L896.622 317.498C897.392 317.678 898.069 318.201 898.502 318.951C898.936 319.702 899.091 320.619 898.933 321.5L891.47 363.274L861.313 356.225L868.771 314.484C868.846 314.041 868.997 313.619 869.216 313.244C869.436 312.869 869.718 312.548 870.047 312.299C870.376 312.051 870.745 311.879 871.133 311.796C871.521 311.712 871.919 311.718 872.305 311.813Z" fill="#EBEBEB"/>
<path d="M891.986 358.925C891.986 359.162 885.136 357.772 876.774 355.821C868.412 353.871 861.68 352.09 861.725 351.853C861.769 351.615 868.575 353.006 876.937 354.956C885.299 356.907 892.016 358.687 891.986 358.925Z" fill="#E0E0E0"/>
<path d="M864.632 352.175C864.41 352.175 865.833 343.22 867.79 332.298C869.747 321.375 871.497 312.539 871.705 312.59C871.912 312.641 870.489 321.545 868.547 332.467C866.604 343.389 864.84 352.226 864.632 352.175Z" fill="#E0E0E0"/>
<path d="M868.678 353.124C868.471 353.124 869.879 344.169 871.837 333.247C873.794 322.325 875.543 313.488 875.751 313.539C875.958 313.59 874.55 322.494 872.593 333.416C870.636 344.339 868.842 353.175 868.678 353.124Z" fill="#E0E0E0"/>
<path d="M872.859 354.091C872.652 354.091 874.06 345.153 876.017 334.214C877.974 323.275 879.724 314.473 879.931 314.524C880.139 314.575 878.73 323.462 876.773 334.401C874.816 345.34 873.067 354.142 872.859 354.091Z" fill="#E0E0E0"/>
<path d="M876.909 355.041C876.701 355.041 878.125 346.103 880.067 335.163C882.009 324.224 883.773 315.422 883.996 315.473C884.218 315.524 882.78 324.411 880.838 335.35C878.896 346.289 877.131 355.091 876.909 355.041Z" fill="#E0E0E0"/>
<path d="M881.088 356.024C880.881 356.024 882.304 347.069 884.247 336.147C886.189 325.225 887.953 316.389 888.161 316.44C888.368 316.491 886.96 325.395 885.003 336.317C883.046 347.239 881.296 356.16 881.088 356.024Z" fill="#E0E0E0"/>
<path d="M885.151 356.974C884.944 356.974 886.352 348.019 888.309 337.096C890.266 326.174 892.016 317.338 892.224 317.389C892.431 317.44 891.023 326.344 889.065 337.266C887.108 348.188 885.359 357.024 885.151 356.974Z" fill="#E0E0E0"/>
<path d="M889.334 357.958C889.126 357.958 890.535 349.003 892.492 338.081C894.449 327.159 896.199 318.322 896.406 318.373C896.614 318.424 895.205 327.311 893.248 338.25C891.291 349.19 889.601 357.992 889.334 357.958Z" fill="#E0E0E0"/>
<path d="M919.046 431.961L938.815 429.879L950.073 569.751C950.212 571.489 949.743 573.219 948.768 574.561C947.792 575.903 946.391 576.747 944.871 576.907L936.544 577.784C935.025 577.944 933.513 577.407 932.339 576.291C931.166 575.175 930.428 573.572 930.288 571.834L919.031 431.963L919.046 431.961Z" fill="#E0E0E0"/>
<path d="M921.042 456.813L940.811 454.731L948.868 554.83C949.008 556.567 948.538 558.298 947.563 559.64C946.587 560.982 945.186 561.826 943.667 561.986L935.339 562.863C933.82 563.023 932.308 562.486 931.134 561.37C929.961 560.254 929.223 558.651 929.084 556.913L921.027 456.814L921.042 456.813Z" fill="#F5F5F5"/>
<path d="M939.964 444.28L926.779 445.668L932.181 512.783L945.365 511.395L939.964 444.28Z" fill="white"/>
<path d="M944.873 576.929C945.732 576.767 946.557 576.421 947.305 575.911C948.191 575.27 948.905 574.36 949.366 573.282C949.668 572.598 949.859 571.857 949.929 571.094C949.969 570.222 949.929 569.346 949.811 568.483C949.188 560.952 948.328 550.115 947.142 536.649C944.933 509.631 941.863 472.116 938.424 429.953L938.839 430.343L924.798 431.819L919.075 432.429L919.416 431.955C922.945 476.373 926.118 516.28 928.401 545.129C928.964 552.32 929.468 558.832 929.883 564.548C930.121 567.397 930.284 570.094 930.521 572.485C930.705 573.555 931.124 574.554 931.739 575.388C932.354 576.222 933.144 576.863 934.035 577.251C935.523 577.719 937.086 577.789 938.602 577.454L942.012 577.132L944.117 576.963H944.844L944.132 577.081L942.027 577.336L938.616 577.743L936.437 577.98C935.588 578.07 934.732 577.942 933.931 577.607C932.983 577.209 932.139 576.54 931.48 575.665C930.821 574.789 930.369 573.736 930.165 572.604C929.898 570.128 929.72 567.516 929.468 564.633C928.994 558.917 928.445 552.405 927.837 545.213C925.495 516.381 922.248 476.475 918.615 432.056V431.615H919.001L924.724 431.005L938.765 429.529H939.15V429.97C942.486 472.15 945.466 509.682 947.616 536.7C948.639 550.166 949.47 561.02 950.048 568.55C950.15 569.439 950.18 570.336 950.137 571.23C950.022 572.238 949.71 573.203 949.225 574.054C948.74 574.905 948.094 575.621 947.335 576.149C946.769 576.539 946.146 576.809 945.496 576.946C945.288 576.956 945.08 576.951 944.873 576.929Z" fill="#E0E0E0"/>
<path d="M917.63 402.406L935.834 400.489C936.617 400.407 937.397 400.683 938.002 401.259C938.606 401.834 938.987 402.66 939.059 403.556L941.688 436.218L917.563 438.759L914.935 406.113C914.897 405.667 914.937 405.217 915.053 404.788C915.168 404.36 915.356 403.962 915.607 403.617C915.857 403.272 916.165 402.988 916.512 402.78C916.86 402.572 917.239 402.445 917.63 402.406Z" fill="#EBEBEB"/>
<path d="M941.228 432.785C933.212 434.22 925.125 435.07 917.016 435.329C921.003 434.471 925.034 433.905 929.085 433.633C933.111 433.044 937.168 432.76 941.228 432.785Z" fill="#E0E0E0"/>
<path d="M919.252 434.82C918.434 429.592 917.879 424.314 917.592 419.013C917.028 413.746 916.731 408.445 916.702 403.139C917.503 408.37 918.057 413.646 918.363 418.945C918.909 424.215 919.206 429.514 919.252 434.82Z" fill="#E0E0E0"/>
<path d="M922.514 434.482C921.696 429.254 921.141 423.976 920.854 418.675C920.29 413.408 919.993 408.107 919.964 402.801C920.763 408.026 921.313 413.297 921.61 418.591C922.165 423.865 922.467 429.17 922.514 434.482Z" fill="#E0E0E0"/>
<path d="M925.851 434.175C925.05 428.944 924.496 423.668 924.19 418.369C923.644 413.099 923.347 407.8 923.301 402.494C924.119 407.722 924.674 413 924.961 418.301C925.516 423.569 925.813 428.869 925.851 434.175Z" fill="#E0E0E0"/>
<path d="M929.097 433.787C928.296 428.556 927.742 423.279 927.437 417.98C926.891 412.711 926.594 407.411 926.547 402.105C927.336 407.331 927.871 412.602 928.148 417.895C928.714 423.169 929.031 428.474 929.097 433.787Z" fill="#E0E0E0"/>
<path d="M932.45 433.429C931.631 428.201 931.077 422.924 930.789 417.623C930.225 412.355 929.928 407.055 929.899 401.748C930.7 406.979 931.255 412.256 931.56 417.555C932.106 422.824 932.403 428.123 932.45 433.429Z" fill="#E0E0E0"/>
<path d="M935.695 433.091C934.889 427.839 934.35 422.539 934.079 417.216C933.516 411.949 933.219 406.648 933.189 401.342C933.99 406.573 934.545 411.849 934.85 417.149C935.383 422.441 935.665 427.763 935.695 433.091Z" fill="#E0E0E0"/>
<path d="M939.033 432.734C938.232 427.509 937.678 422.238 937.372 416.944C936.826 411.669 936.529 406.364 936.482 401.053C937.301 406.281 937.855 411.558 938.143 416.859C938.706 422.127 939.004 427.427 939.033 432.734Z" fill="#E0E0E0"/>
<path d="M345.816 308.045C343.207 294.783 332.191 283.403 320.374 284.725C313.39 285.506 307.03 290.441 302.834 296.801C301.325 298.948 299.953 301.215 298.727 303.585C297.501 301.215 296.128 298.948 294.62 296.801C290.35 290.424 284.078 285.489 277.095 284.691C265.233 283.352 254.262 294.732 251.622 307.978C248.983 321.223 253.357 335.3 260.518 346.155C267.68 357.009 279.541 370.916 299.676 376.208C312.946 372.714 329.774 357.043 336.92 346.205C344.067 335.368 348.426 321.291 345.816 308.045Z" fill="#E0E0E0"/>
<path d="M343.638 332.637H343.253H342.096H337.648L321.413 332.773L321.695 332.535C320.212 338.539 318.566 345.56 316.713 353.26L316.416 354.515L316.046 353.294L306.586 322.24C305.533 318.848 304.51 315.372 303.502 312.064L304.199 312.149L293.568 332.806L293.479 332.993H293.272L264.73 332.823L256.65 332.705H254.5C254.259 332.744 254.014 332.744 253.773 332.705H254.5H256.65L264.73 332.603L293.272 332.45L292.975 332.654L303.517 311.929L303.932 311.098L304.214 311.997C305.222 315.389 306.245 318.781 307.298 322.173L316.742 353.43H316.06C317.973 345.73 319.693 338.726 321.176 332.739V332.501H321.383L337.618 332.654H342.066H343.223L343.638 332.637Z" fill="#FAFAFA"/>
<path d="M534.576 250.803L529.505 400.577L463.941 398.152C463.17 389.451 462.31 355.752 462.31 355.752C462.31 355.752 434.94 352.36 433.324 321.323C432.538 306.245 433.131 274.937 433.947 246.699C434.391 231.652 439.963 217.4 449.471 206.989C458.98 196.579 471.671 190.835 484.832 190.985C491.557 191.082 498.197 192.717 504.362 195.794C510.526 198.87 516.09 203.327 520.725 208.902C525.361 214.476 528.974 221.055 531.353 228.251C533.732 235.447 534.827 243.115 534.576 250.803Z" fill="#FFBE9D"/>
<path d="M462.281 355.753C474.837 355.34 487.002 350.664 497.228 342.32C497.228 342.32 489.814 365.132 462.563 363.809L462.281 355.753Z" fill="#EB996E"/>
<path d="M442.857 268.916C442.896 270.074 443.328 271.168 444.062 271.967C444.796 272.765 445.774 273.204 446.786 273.19C447.281 273.208 447.774 273.113 448.237 272.91C448.699 272.708 449.122 272.402 449.479 272.01C449.837 271.618 450.122 271.149 450.319 270.629C450.517 270.11 450.621 269.55 450.627 268.984C450.588 267.825 450.156 266.728 449.423 265.927C448.689 265.126 447.712 264.683 446.698 264.693C446.202 264.677 445.709 264.774 445.246 264.979C444.784 265.183 444.361 265.491 444.004 265.884C443.647 266.277 443.361 266.748 443.164 267.268C442.967 267.789 442.863 268.349 442.857 268.916Z" fill="#263238"/>
<path d="M440.441 262.522C440.945 263.082 443.777 260.436 447.958 260.216C452.139 259.995 455.297 262.234 455.727 261.623C455.935 261.352 455.401 260.334 454.022 259.283C452.151 257.949 449.966 257.309 447.765 257.451C445.601 257.565 443.525 258.462 441.835 260.012C440.589 261.182 440.189 262.285 440.441 262.522Z" fill="#263238"/>
<path d="M482.43 268.764C482.464 269.916 482.889 271.008 483.614 271.808C484.338 272.609 485.307 273.056 486.314 273.055C486.81 273.073 487.305 272.978 487.768 272.774C488.231 272.57 488.654 272.263 489.012 271.869C489.37 271.476 489.655 271.004 489.852 270.483C490.048 269.961 490.151 269.4 490.154 268.832C490.116 267.694 489.696 266.616 488.981 265.823C488.265 265.03 487.31 264.583 486.314 264.575C485.816 264.548 485.319 264.636 484.851 264.833C484.384 265.031 483.956 265.334 483.593 265.725C483.231 266.116 482.941 266.587 482.741 267.109C482.541 267.631 482.435 268.194 482.43 268.764Z" fill="#263238"/>
<path d="M481.527 261.183C482.031 261.726 484.863 259.08 489.044 258.877C493.225 258.673 496.457 260.878 496.813 260.268C497.021 259.996 496.487 258.979 495.108 257.944C493.241 256.613 491.062 255.974 488.866 256.112C486.7 256.218 484.622 257.116 482.935 258.673C481.675 259.877 481.275 260.946 481.527 261.183Z" fill="#263238"/>
<path d="M467.826 297.444C467.826 297.173 465.232 296.8 460.991 296.409C459.924 296.409 458.901 296.155 458.693 295.324C458.546 294.071 458.743 292.797 459.257 291.678C460.131 288.659 461.051 285.521 462.014 282.214C465.854 268.748 468.568 257.707 468.093 257.537C467.619 257.368 464.075 268.137 460.294 281.536C459.375 284.848 458.5 288.014 457.67 291.033C457.054 292.539 456.928 294.247 457.314 295.85C457.487 296.271 457.74 296.643 458.056 296.937C458.372 297.231 458.742 297.439 459.138 297.546C459.737 297.692 460.349 297.755 460.962 297.732C465.202 297.834 467.826 297.715 467.826 297.444Z" fill="#263238"/>
<path d="M480.251 300.072C479.584 300.072 479.777 305.16 476.055 309.145C472.334 313.131 467.486 312.724 467.471 313.453C467.471 313.775 468.598 314.403 470.629 314.352C473.287 314.25 475.828 313.079 477.805 311.045C479.709 309.1 480.87 306.378 481.037 303.464C481.126 301.293 480.563 300.021 480.251 300.072Z" fill="#263238"/>
<path d="M479.673 242.528C480.132 243.817 484.284 242.969 489.206 243.376C494.129 243.783 498.102 245.072 498.754 243.902C499.021 243.325 498.295 242.206 496.634 240.985C494.438 239.559 491.988 238.724 489.468 238.542C486.948 238.36 484.425 238.835 482.089 239.933C480.384 240.832 479.465 241.934 479.673 242.528Z" fill="#263238"/>
<path d="M441.405 248.616C442.191 249.667 445.008 248.379 448.477 248.141C451.947 247.904 454.882 248.531 455.52 247.361C455.787 246.784 455.282 245.665 453.963 244.766C452.191 243.634 450.166 243.126 448.142 243.307C446.119 243.488 444.187 244.35 442.591 245.784C441.42 246.971 441.064 248.107 441.405 248.616Z" fill="#263238"/>
<path d="M503.691 218.784L503.854 218.903C508.342 222.576 511.421 228.085 512.454 234.285C512.454 234.506 512.454 234.709 512.558 234.913C514.04 243.715 514.159 252.755 515.671 261.54C517.184 270.325 520.223 279.195 526.198 284.979C528.66 287.37 532.885 288.862 534.709 285.827C535.303 284.564 535.58 283.137 535.509 281.705C536.073 260.217 540.387 241.001 539.438 218.58C539.321 215.581 538.58 212.656 537.278 210.049C535.976 207.442 534.15 205.227 531.951 203.588C527.711 200.45 522.566 197.245 518.118 199.941C513.67 202.638 508.169 212.729 504.774 217.054" fill="#263238"/>
<path d="M526.035 265.882C526.48 265.628 544.435 258.555 544.717 279.84C544.998 301.125 526.272 297.055 526.228 296.444C526.183 295.833 526.035 265.882 526.035 265.882Z" fill="#FFBE9D"/>
<path d="M531.803 288.319C531.892 288.319 532.129 288.573 532.677 288.845C533.458 289.2 534.328 289.2 535.109 288.845C537.066 287.98 538.667 284.384 538.712 280.551C538.735 278.726 538.4 276.918 537.733 275.26C537.551 274.596 537.23 273.993 536.799 273.502C536.368 273.012 535.839 272.649 535.257 272.444C534.883 272.338 534.489 272.384 534.142 272.577C533.795 272.769 533.518 273.094 533.36 273.496C533.107 274.106 533.241 274.53 533.137 274.564C533.033 274.598 532.737 274.208 532.87 273.326C532.966 272.799 533.217 272.326 533.582 271.986C534.092 271.536 534.735 271.329 535.376 271.41C536.142 271.568 536.859 271.949 537.459 272.517C538.059 273.084 538.521 273.818 538.801 274.649C539.617 276.48 540.03 278.512 540.002 280.568C540.002 284.859 538.074 288.895 535.406 289.828C534.909 290.002 534.386 290.047 533.872 289.959C533.359 289.871 532.87 289.652 532.44 289.319C531.847 288.794 531.743 288.319 531.803 288.319Z" fill="#EB996E"/>
<path d="M520.921 206.521C526.288 198.635 514.99 184.931 506.094 180.487C497.198 176.044 484.788 179.656 475.373 181.963C469.442 183.422 463.438 185.745 457.433 184.71C453.446 183.738 449.608 182.092 446.046 179.826C442.47 177.564 438.531 176.15 434.466 175.671C430.404 175.484 426.015 177.367 424.088 181.522C422.16 185.677 423.776 191.698 427.72 192.902C422.916 189.035 415.117 192.342 413.65 198.855C412.182 205.368 417.623 212.559 423.465 211.846C421.063 209.235 416.659 212.491 416.63 216.29C416.6 220.089 419.313 223.193 422.19 225.092C429.603 229.926 438.633 229.807 446.906 227.738C455.179 225.669 463.037 221.785 471.266 219.478C479.495 217.172 493.313 212.898 500.92 217.104C506.554 220.191 509.816 228.756 513.315 227.382C514.963 226.629 516.434 225.443 517.609 223.92C518.783 222.396 519.628 220.579 520.076 218.613C520.909 214.658 521.174 210.574 520.861 206.521" fill="#263238"/>
<path d="M428.757 194.445C428.757 194.445 428.402 194.631 427.823 195.106C426.975 195.804 426.317 196.763 425.925 197.871C425.286 199.607 425.146 201.532 425.525 203.366C425.77 204.57 426.226 205.705 426.866 206.702C427.506 207.699 428.316 208.537 429.247 209.166C431.541 210.687 434.142 211.5 436.793 211.523C439.848 211.544 442.887 211.035 445.808 210.014C452.05 207.945 458.233 203.722 464.756 199.431C471.28 195.14 477.937 191.561 484.55 190.646C487.662 190.181 490.823 190.405 493.861 191.307C496.524 192.099 499.037 193.444 501.274 195.276C504.523 197.875 507.14 201.377 508.88 205.452C509.553 206.913 510.051 208.47 510.363 210.082C510.274 210.082 509.918 208.386 508.658 205.604C506.84 201.685 504.214 198.332 501.008 195.835C498.829 194.094 496.393 192.818 493.817 192.07C490.851 191.22 487.771 191.03 484.743 191.511C478.308 192.443 471.74 196.005 465.261 200.262C458.781 204.519 452.495 208.742 446.134 210.845C443.135 211.878 440.014 212.37 436.882 212.304C434.124 212.256 431.426 211.366 429.069 209.726C428.052 208.976 427.167 208.015 426.459 206.893C425.674 205.566 425.197 204.031 425.075 202.435C424.953 200.838 425.19 199.232 425.762 197.769C426.206 196.632 426.933 195.67 427.853 195.004C428.13 194.77 428.435 194.582 428.757 194.445Z" fill="#455A64"/>
<path d="M494.484 183.692C494.887 183.613 495.298 183.613 495.7 183.692C496.795 183.778 497.879 184 498.932 184.354C502.464 185.493 505.612 187.827 507.962 191.051C510.312 194.275 511.754 198.237 512.099 202.416C512.206 203.668 512.206 204.929 512.099 206.181C512.084 206.641 511.999 207.095 511.846 207.521C511.698 207.521 511.95 205.571 511.565 202.433C511.098 198.422 509.648 194.644 507.384 191.535C505.12 188.426 502.134 186.113 498.769 184.863C496.19 183.93 494.47 183.862 494.484 183.692Z" fill="#455A64"/>
<path d="M539.054 238.219C538.601 238.512 538.092 238.675 537.572 238.694C536.114 238.837 534.652 238.477 533.376 237.659C531.466 236.479 529.915 234.663 528.928 232.452C527.778 229.791 526.921 226.977 526.377 224.074C525.848 221.238 525.017 218.487 523.901 215.883C522.977 213.793 521.525 212.068 519.735 210.93C518.535 210.151 517.171 209.764 515.791 209.811C514.828 209.811 514.309 210.099 514.309 210.014C514.758 209.701 515.266 209.515 515.791 209.472C517.242 209.283 518.709 209.596 520.002 210.371C521.934 211.495 523.518 213.271 524.539 215.459C525.71 218.122 526.567 220.95 527.089 223.871C527.62 226.705 528.436 229.46 529.521 232.079C530.421 234.191 531.837 235.958 533.598 237.167C534.783 237.973 536.134 238.4 537.512 238.405C538.491 238.338 539.025 238.134 539.054 238.219Z" fill="#455A64"/>
<path d="M538.074 252.28C538.074 252.28 537.926 252.28 537.615 252.416C537.175 252.522 536.729 252.59 536.28 252.619C534.619 252.76 532.95 252.611 531.328 252.178C525.889 250.73 521.126 246.995 517.984 241.714C514.913 236.486 513.032 230.464 512.513 224.194C512.458 223.14 512.314 222.095 512.083 221.074C511.9 220.329 511.522 219.666 511.001 219.174C510.538 218.767 509.981 218.525 509.399 218.479C509.704 218.365 510.029 218.343 510.343 218.414C510.657 218.485 510.95 218.648 511.193 218.886C511.795 219.39 512.246 220.095 512.483 220.904C512.769 221.947 512.958 223.021 513.047 224.109C513.714 230.227 515.623 236.082 518.622 241.205C521.663 246.294 526.197 249.97 531.402 251.568C533.59 252.134 535.833 252.373 538.074 252.28Z" fill="#455A64"/>
<path d="M408.001 789.504L618.54 787.944L597.293 642.393L593.601 392.148L551.553 377.461L530.795 364.062L462.489 373.95L453.697 386.687C453.697 386.687 423.806 398.22 410.877 404.987L409.987 405.445C400.818 410.229 393.049 417.937 387.614 427.646L330.635 529.049L247.309 473.471L217.952 522.367C217.952 522.367 320.256 619.785 338.805 617.801C357.353 615.817 363.788 615.8 370.193 605.827C375.1 598.161 394.39 572.196 403.582 554.846L412.968 674.736L408.001 789.504Z" fill="#EBEBEB"/>
<path d="M474.706 789.656C474.483 789.656 472.793 736.334 470.94 670.546C469.086 604.759 467.722 551.402 467.974 551.402C468.226 551.402 469.872 604.708 471.74 670.529C473.609 736.351 474.913 789.656 474.706 789.656Z" fill="#263238"/>
<path d="M462.756 372.966L468.049 555.015L530.736 364.062L462.756 372.966Z" fill="#FFBE9D"/>
<path d="M468.522 565.275C468.434 565.099 468.365 564.911 468.315 564.716C468.167 564.309 467.989 563.766 467.766 563.02C467.247 561.527 466.536 559.424 465.616 556.728C463.704 551.3 460.902 543.448 457.017 533.967C455.03 529.235 452.806 524.097 450.167 518.703C447.437 513.01 444.144 507.695 440.352 502.863C438.276 500.42 435.8 497.859 434.925 494.111C434.549 492.253 434.59 490.316 435.044 488.481C435.444 486.649 436.008 484.885 436.526 483.104C438.587 475.93 440.737 468.519 442.917 460.938L443.05 460.463L443.451 461.039L418.245 463.651V462.803L431.693 432.275C435.83 422.981 439.566 414.789 442.783 408.039C446.001 401.289 448.714 395.964 450.597 392.385C451.561 390.587 452.332 389.214 452.865 388.298L453.473 387.28C453.622 387.043 453.696 386.924 453.711 386.941L453.533 387.314L452.969 388.383C452.465 389.383 451.739 390.757 450.819 392.538C448.966 396.167 446.371 401.51 443.198 408.294C440.026 415.078 436.349 423.286 432.256 432.614L425.822 447.37L422.367 455.273L420.573 459.343L419.639 461.395L419.15 462.413L418.897 462.939L418.749 463.193C418.645 463.382 418.488 463.525 418.304 463.6V462.752L443.51 460.106H444.088L443.91 460.751L443.777 461.209C441.582 468.79 439.432 476.202 437.372 483.376C436.393 486.92 434.97 490.482 435.77 493.908C436.571 497.334 438.914 499.844 440.989 502.286C444.828 507.212 448.147 512.637 450.879 518.449C453.518 523.842 455.712 529.015 457.669 533.713C461.495 543.244 464.238 551.148 466.061 556.626C466.951 559.373 467.633 561.51 468.063 562.969C468.29 563.692 468.453 564.258 468.552 564.665C468.554 564.869 468.544 565.073 468.522 565.275Z" fill="#263238"/>
<path d="M468.315 566.989C468.292 566.792 468.292 566.592 468.315 566.395L468.552 564.699C468.902 562.48 469.423 560.301 470.109 558.187C472.8 550.439 476.215 543.046 480.295 536.139C482.83 531.729 485.722 526.98 488.998 521.994C492.455 516.675 496.168 511.579 500.118 506.73C504.51 501.287 509.319 496.304 514.485 491.839C517.245 489.503 520.111 487.335 523.07 485.343C526.035 483.308 529.149 481.375 532.114 479.119L532.01 479.73C527.969 472.826 522.492 467.179 516.072 463.295L515.538 462.973L516.027 462.566C525.195 454.749 535.875 449.577 547.163 447.489L546.881 447.845L550.099 397.236C550.514 391.131 550.84 386.28 551.077 382.922C551.196 381.226 551.285 380.039 551.359 379.14L551.448 378.173C551.43 378.061 551.43 377.946 551.448 377.834C551.458 377.947 551.458 378.06 551.448 378.173V379.14C551.448 380.056 551.344 381.328 551.27 382.939C551.092 386.331 550.825 391.148 550.499 397.27C549.773 409.634 548.764 427.12 547.534 447.913V448.218H547.267C536.089 450.314 525.517 455.457 516.442 463.211V462.481C522.976 466.426 528.55 472.167 532.663 479.187L532.885 479.543L532.559 479.797C529.594 482.07 526.45 484.021 523.47 486.056C520.531 488.019 517.685 490.159 514.945 492.467C509.825 496.896 505.053 501.827 500.682 507.205C496.727 512.05 493.015 517.146 489.562 522.469C486.27 527.404 483.349 532.119 480.799 536.512C476.682 543.341 473.204 550.645 470.42 558.305C469.702 560.391 469.137 562.541 468.73 564.733C468.597 565.445 468.493 566.022 468.419 566.429C468.402 566.619 468.367 566.807 468.315 566.989Z" fill="#263238"/>
<path d="M548.054 511.479H503.781V521.332H548.054V511.479Z" fill="#263238"/>
<path d="M538.06 600.231C537.819 600.356 537.565 600.442 537.304 600.485L535.109 601.028C532.404 601.671 529.665 602.119 526.91 602.368C522.788 602.795 518.634 602.217 514.723 600.672C509.854 598.734 505.821 594.733 503.454 589.495C501.354 584.211 500.305 578.458 500.385 572.654C500.385 567.345 500.533 562.647 500.548 558.645C500.563 554.642 500.667 551.437 500.771 549.198C500.771 548.079 500.874 547.214 500.919 546.637C500.918 546.332 500.958 546.029 501.037 545.738C501.056 546.038 501.056 546.338 501.037 546.637C501.037 547.333 501.037 548.181 501.037 549.215C501.037 551.573 501.037 554.761 501.037 558.645V572.637C500.996 578.315 502.038 583.935 504.092 589.105C506.363 594.147 510.228 598.011 514.9 599.909C518.703 601.44 522.741 602.057 526.762 601.723C529.499 601.533 532.226 601.182 534.931 600.672L537.155 600.299C537.453 600.236 537.757 600.213 538.06 600.231Z" fill="#263238"/>
<path d="M546.067 544.568C546.067 544.805 535.985 545.28 523.56 545.602C511.135 545.925 501.038 546.01 501.038 545.755C501.038 545.501 511.105 545.06 523.545 544.721C535.985 544.381 546.067 544.415 546.067 544.568Z" fill="#263238"/>
<path d="M524.138 544.924V528.117C524.138 526.808 524.592 525.553 525.401 524.627C526.211 523.702 527.308 523.182 528.452 523.182C529.597 523.182 530.694 523.702 531.503 524.627C532.312 525.553 532.767 526.808 532.767 528.117V555.813C532.78 556.035 532.756 556.259 532.694 556.471C532.632 556.682 532.534 556.878 532.406 557.047C532.147 557.387 531.781 557.596 531.388 557.627C530.995 557.659 530.607 557.51 530.309 557.215C530.012 556.919 529.829 556.5 529.801 556.05C529.801 555.847 529.801 555.609 529.801 555.389C529.801 551.166 529.386 544.721 529.386 544.721L524.138 544.924Z" fill="#263238"/>
<path d="M523.409 573.959C523.002 570.018 522.864 566.05 522.999 562.087C522.863 558.124 523.001 554.156 523.409 550.215C523.817 554.156 523.955 558.124 523.82 562.087C523.954 566.05 523.816 570.018 523.409 573.959Z" fill="#263238"/>
<path d="M531.754 595.957C531.533 595.957 531.344 587.477 531.344 577.063C531.344 566.65 531.533 558.17 531.754 558.17C531.975 558.17 532.165 566.65 532.165 577.063C532.165 587.477 531.991 595.957 531.754 595.957Z" fill="#263238"/>
<path d="M463.867 411.261L484.461 440.009C499.006 423.218 509.459 406.631 518.563 399.305C518.563 399.305 468.063 557.575 467.989 554.947C467.915 552.318 463.867 411.261 463.867 411.261Z" fill="#263238"/>
<path d="M518.621 399.373C518.468 399.612 518.294 399.834 518.102 400.035L516.501 401.731C515.107 403.24 513.121 405.479 510.689 408.26C505.811 413.806 499.332 421.828 492.259 430.647C485.187 439.466 478.619 447.438 473.637 452.899C471.146 455.629 469.1 457.783 467.632 459.225L465.942 460.921C465.754 461.129 465.545 461.311 465.319 461.464C465.319 461.464 465.482 461.209 465.838 460.802L467.425 459.106C468.833 457.597 470.82 455.358 473.252 452.577C478.115 447.031 484.594 439.009 491.681 430.189C498.768 421.37 505.322 413.399 510.304 407.938C512.794 405.207 514.841 403.053 516.308 401.612L517.984 399.916C518.384 399.526 518.592 399.339 518.621 399.373Z" fill="#263238"/>
<path d="M484.327 439.891C484.164 440.044 479.449 433.768 473.801 425.865C468.152 417.962 463.704 411.415 463.867 411.262C464.03 411.11 468.745 417.385 474.394 425.305C480.043 433.226 484.491 439.738 484.327 439.891Z" fill="#263238"/>
<path d="M396.792 466.246C396.888 466.634 396.947 467.031 396.97 467.433C397.074 468.298 397.192 469.435 397.341 470.825C397.652 473.793 398.052 478.084 398.527 483.41C399.461 494.044 400.573 508.748 401.729 524.996C402.886 541.243 403.953 555.863 404.695 566.598C405.08 571.839 405.391 576.13 405.614 579.2C405.718 580.624 405.792 581.761 405.851 582.592C405.877 582.993 405.877 583.395 405.851 583.796C405.754 583.408 405.689 583.01 405.658 582.609C405.569 581.744 405.451 580.607 405.288 579.217C404.976 576.249 404.576 571.958 404.116 566.632C403.182 555.998 402.055 541.294 400.899 525.046C399.742 508.799 398.69 494.179 397.934 483.444C397.548 478.203 397.237 473.912 397 470.842C396.911 469.418 396.836 468.281 396.777 467.45C396.746 467.049 396.751 466.646 396.792 466.246Z" fill="#263238"/>
<path d="M590.561 391.775C590.561 391.775 623.565 391.775 631.839 464.398C640.112 537.021 658.304 670.208 625.226 695.461C592.148 720.715 438.87 718.934 438.87 718.934V648.584L564.63 632.709C564.63 632.709 564.155 619.616 570.56 619.718L563.414 453.713C563.414 453.713 561.931 394.93 590.561 391.775Z" fill="#EBEBEB"/>
<path d="M563.739 508.885C563.739 508.885 563.739 509.563 563.873 510.886C564.006 512.209 564.036 514.278 564.169 516.788C564.406 521.995 564.762 529.593 565.222 539.328C566.097 558.849 567.357 586.901 568.899 621.075V621.431H568.573C567.509 621.461 566.488 621.911 565.681 622.703C564.863 623.598 564.252 624.711 563.902 625.943C563.158 628.557 562.836 631.304 562.953 634.05V634.406H562.657L438.913 648.974L439.254 648.533V718.934L438.884 718.51C492.423 719.172 539.112 716.814 572.101 711.981C580.36 710.777 587.729 709.403 594.149 707.961C599.608 706.729 605.007 705.173 610.325 703.297C612.474 702.466 614.372 701.601 616.003 700.94C617.634 700.278 618.968 699.481 620.021 698.854L622.364 697.327L623.179 696.835C623.179 696.835 622.927 697.039 622.408 697.395L620.08 698.989C619.028 699.634 617.664 700.295 616.077 701.16C614.491 702.025 612.563 702.721 610.399 703.569C605.086 705.503 599.686 707.11 594.223 708.385C587.803 709.878 580.419 711.285 572.175 712.523C539.156 717.425 492.438 719.986 438.869 719.307H438.498V718.883C438.498 698.531 438.498 677.06 438.498 654.961V648.177H438.854L562.597 633.761L562.301 634.151C562.168 631.277 562.51 628.4 563.309 625.671C563.692 624.335 564.359 623.129 565.251 622.161C566.178 621.261 567.343 620.747 568.558 620.702L568.261 621.075C566.779 586.901 565.667 558.849 564.866 539.311C564.48 529.576 564.169 521.978 563.961 516.771C563.872 514.193 563.813 512.226 563.754 510.869C563.695 509.512 563.739 508.885 563.739 508.885Z" fill="#263238"/>
<path d="M586.691 638.203C586.557 638.203 586.068 636.745 584.941 634.54C583.457 631.676 581.557 629.124 579.322 626.993C577.076 624.876 574.535 623.208 571.805 622.057C569.714 621.192 568.32 620.921 568.35 620.768C569.587 620.754 570.817 620.989 571.983 621.464C574.849 622.469 577.513 624.115 579.819 626.308C582.125 628.5 584.027 631.194 585.416 634.234C586.045 635.459 586.477 636.804 586.691 638.203Z" fill="#263238"/>
<path d="M571.909 651.263C570.13 644.553 566.848 638.49 562.391 633.676C563.223 634.119 563.973 634.741 564.6 635.507C566.238 637.202 567.656 639.155 568.811 641.308C569.978 643.448 570.877 645.766 571.479 648.194C571.801 649.174 571.947 650.217 571.909 651.263Z" fill="#263238"/>
<path d="M137.398 444.928L227.545 719.103L418.764 723.53L339.961 446.81L137.398 444.928Z" fill="#263238"/>
<g opacity="0.5">
<path d="M257.806 719.596C257.806 719.596 212.021 619.04 197.802 551.946C189.692 514.006 182.472 445.268 182.472 445.268L301.826 446.472C301.826 446.472 341.413 518.535 364.202 590.547C377.85 633.509 387.859 677.871 394.093 723.022L332.844 721.478L312.694 654.283C312.694 654.283 306.408 658.166 297.764 653.146L318.521 721.122L257.806 719.596Z" fill="white"/>
</g>
<path d="M323.221 611.595C322.109 607.897 317.29 594.838 318.061 588.326C318.832 581.813 324.466 574.758 324.777 568.228C325.089 561.698 325.252 547.147 323.799 540.057C322.271 533.787 320.394 527.635 318.179 521.639C318.179 521.639 309.536 505.985 300.847 505.629L290.276 505.188C290.276 505.188 282.625 507.291 286.332 518.111C290.039 528.932 298.786 547.503 300.046 550.708C301.307 553.914 307.208 566.294 305.873 574.232C304.539 582.169 294.442 604.319 295.776 609.712L290.365 609.492C290.365 609.492 285.368 599.587 278.355 595.398C271.342 591.209 256.293 573.129 253.15 562.326C250.007 551.522 246.478 526.388 244.358 518.773C242.237 511.158 238.961 504.475 233.46 502.779C227.959 501.083 220.591 503.22 220.591 503.22C220.591 503.22 210.731 507.104 215.134 524.064C219.538 541.024 222.014 542.059 227.233 551.98C232.452 561.902 233.771 564.87 237.908 569.178C242.045 573.486 251.83 578.251 256.041 588.614C260.252 598.976 262.431 611.001 269.963 625.824C277.495 640.647 280.342 646.176 286.273 646.176C292.203 646.176 294.131 638.493 294.353 633.88C294.496 631.458 294.496 629.027 294.353 626.604L301.529 626.91C301.529 626.91 309.639 644.243 318.15 647.499C326.66 650.755 326.067 642.004 326.497 638.612C326.927 635.22 324.392 615.275 323.221 611.595ZM281.187 631.607C278.933 630.285 275.004 621.601 271.105 614.071C268.14 608.44 268.451 605.472 268.762 604.336C268.812 604.138 268.887 603.949 268.985 603.776L268.866 603.963C269.163 601.995 272.054 602.86 274.174 603.827C275.731 604.539 283.144 607.846 285.561 620.126C287.978 632.405 283.5 632.913 281.231 631.607H281.187ZM318.372 633.151C316.89 634.304 311.893 633.405 306.926 621.024C301.959 608.644 307.549 605.862 308.72 605.269C310.307 604.454 312.753 603.81 314.236 605.845L314.013 605.659C314.212 605.836 314.401 606.029 314.577 606.235C316.698 608.944 317.939 612.406 318.091 616.038C318.773 623.416 319.929 631.998 318.417 633.151H318.372Z" fill="white"/>
<path d="M292.901 605.471C294.68 605.335 293.42 597.601 293.42 597.601C293.611 594.688 293.611 591.763 293.42 588.85C293.094 585.204 294.74 581.863 295.881 578.488C297.023 575.113 295.881 566.107 294.399 561.528C292.916 556.948 293.954 556.592 293.954 556.592C298.52 554.896 294.31 544.025 291.241 533.866C288.171 523.707 285.117 524.436 285.117 524.436C285.117 524.436 283.071 524.351 281.9 532.628C280.728 540.904 278.727 543.838 274.338 543.821H271.996C267.548 543.821 263.648 540.26 257.421 531.678C251.194 523.096 249.162 523.011 249.162 523.011C249.162 523.011 245.589 522.011 248.614 532.17C251.639 542.329 253.907 553.082 259.63 555.252C259.63 555.252 260.816 555.727 262.165 560.34C263.515 564.954 267.755 574.027 270.972 577.572C274.19 581.116 277.911 584.695 279.78 588.392C281.648 592.09 285.132 597.364 285.132 597.364C285.132 597.364 289.387 605.234 291.285 605.522L292.901 605.471Z" fill="white"/>
<path d="M237.404 447.742C237.404 447.742 235.076 448.506 236.752 452.966C238.427 457.427 238.235 460.055 239.198 461.26C240.221 462.469 241.31 463.602 242.46 464.652C242.46 464.652 239.791 465.703 241.763 470.469C243.735 475.235 244.239 479.933 245.144 482.019C246.048 484.105 247.961 484.783 248.851 485.987C249.74 487.191 245.885 485.852 246.893 489.99C247.902 494.128 250.185 497.147 250.17 500.963C250.155 504.779 251.786 509.799 254.959 511.682C258.132 513.564 257.539 516.176 257.628 518.228C257.816 521.042 258.314 523.817 259.111 526.488C260.356 531.796 267.488 540.056 271.862 539.598C276.235 539.14 280.431 533.238 279.379 529.676C277.588 524.817 275.191 520.281 272.262 516.21C270.409 514.09 268.837 514.022 269.178 511.699C269.519 509.375 271.802 512.971 271.698 509.748C271.784 506.427 271.033 503.148 269.534 500.302C267.769 497.3 267.236 494.366 265.545 490.482C263.855 486.598 260.549 485.886 260.816 485.021C261.083 484.156 262.891 484.529 261.394 480.662C259.896 476.795 259.807 479.424 258.206 473.505C256.605 467.586 255.878 464.041 254.322 464.567C252.765 465.093 253.002 462.464 252.453 458.342C251.905 454.221 253.21 455.748 250.971 451.27C248.732 446.793 237.404 447.742 237.404 447.742Z" fill="white"/>
<path d="M240.399 593.43L242.371 588.036L239.183 577.199C239.183 577.199 244.521 573.485 251.949 585.815C259.377 598.144 258.888 603.996 258.888 603.996L250.081 603.64C248.853 607.171 248.743 611.083 249.769 614.697C251.563 620.26 254.217 619.582 256.575 629.334C257.807 633.797 258.685 638.378 259.199 643.021L286.658 719.103L274.397 718.594L244.743 637.983C244.743 637.983 241.378 635.49 235.847 623.262C230.317 611.034 225.128 595.143 228.671 590.852C232.215 586.561 240.399 593.43 240.399 593.43Z" fill="white"/>
<path d="M338.329 597.516L333.036 591.902L329.73 581.065C329.73 581.065 321.99 576.808 321.857 588.815C321.723 600.823 325.786 606.878 325.786 606.878L334.593 607.234C334.593 607.234 340.094 613.068 341.621 618.597C343.148 624.126 340.138 623.227 343.518 633.03C345.088 637.783 346.961 642.397 349.123 646.836L367.093 722.494L379.369 723.003L360.866 642.782C360.866 642.782 362.823 640.51 360.999 628.434C359.175 616.359 354.95 600.535 348.693 595.837C347.123 594.491 345.15 593.912 343.208 594.227C341.265 594.541 339.511 595.724 338.329 597.516Z" fill="white"/>
<path d="M137.398 444.928L339.96 446.437H340.183L340.257 446.692C362.393 524.334 389.007 617.716 417.637 718.052L419.12 723.326L419.298 723.92H418.749L227.485 719.459H227.248L227.159 719.205L137.398 444.928C138.466 448.201 174.243 556.525 227.841 718.968L227.53 718.713L418.794 723.089L418.423 723.665C417.919 721.969 417.415 720.172 416.94 718.391L339.693 446.929L339.99 447.183L137.398 444.928Z" fill="#263238"/>
<path d="M439.166 654.317H419.995C419.995 654.317 410.18 643.48 407.511 641.953C404.842 640.427 391.735 635.898 391.735 635.898L396.791 651.943C397.582 652.201 398.36 652.513 399.119 652.875C402.47 654.368 401.536 657.76 398.867 657.76H379.562C379.562 657.76 359.784 646.905 356.848 648.89C354.387 650.586 353.527 653.554 356.047 657.76C358.568 661.966 375.9 671.854 377.887 672.617L383.551 674.516L378.228 676.416L353.023 666.359C351.377 666.019 349.123 665.714 348.382 666.8C348.062 667.169 347.811 667.609 347.644 668.093C347.477 668.576 347.397 669.094 347.409 669.614C347.422 670.133 347.526 670.645 347.716 671.118C347.907 671.59 348.178 672.013 348.515 672.362C352.107 676.076 355.916 679.504 359.917 682.623C359.917 682.623 355.899 689.407 359.22 692.799C362.541 696.191 372.208 706.52 372.208 706.52C372.208 706.52 373.217 712.235 376.212 714.898C379.207 717.561 412.181 717.561 414.509 717.561C416.837 717.561 430.166 708.809 430.166 708.809L438.884 707.758L439.166 654.317Z" fill="#FFBE9D"/>
<path d="M382.009 693.511C380.846 693.938 379.626 694.128 378.406 694.07C377.06 694.075 375.725 693.805 374.462 693.273C372.952 692.591 371.515 691.714 370.177 690.661C367.316 688.541 364.765 686.574 362.927 685.116C361.897 684.399 360.937 683.558 360.065 682.605C361.182 683.135 362.246 683.8 363.238 684.59C365.136 685.913 367.686 687.795 370.652 689.915C371.948 690.933 373.329 691.802 374.773 692.51C375.954 693.058 377.207 693.374 378.48 693.443C380.615 693.562 382.009 693.358 382.009 693.511Z" fill="#EB996E"/>
<path d="M383.521 707.621C383.595 707.621 382.809 708.707 381.03 709.233C378.699 709.803 376.265 709.336 374.225 707.927C372.224 706.626 370.372 705.048 368.709 703.229C367.968 702.539 367.332 701.714 366.826 700.786C367.004 700.549 370.029 704.178 374.595 707.146C376.487 708.461 378.72 708.983 380.911 708.622C381.805 708.377 382.679 708.042 383.521 707.621Z" fill="#EB996E"/>
<path d="M392.907 676.397C391.158 676.646 389.384 676.49 387.688 675.939C385.942 675.675 384.259 675.018 382.736 674.006C384.467 674.18 386.179 674.538 387.851 675.074C389.568 675.338 391.261 675.781 392.907 676.397Z" fill="#EB996E"/>
<path d="M129.926 494.503C128.987 493.891 128.165 493.068 127.511 492.083C126.856 491.099 126.382 489.973 126.118 488.774C125.853 487.575 125.803 486.327 125.971 485.105C126.139 483.883 126.521 482.713 127.095 481.664C127.796 480.171 128.816 478.905 130.06 477.984C133.277 476.033 161.744 469.928 164.799 469.504C167.853 469.08 168.416 475.728 164.428 479.035C160.44 482.342 130.001 494.537 130.001 494.537L129.926 494.503Z" fill="#FFBE9D"/>
<path d="M136.553 518.11C135.619 517.496 134.803 516.674 134.152 515.692C133.502 514.71 133.03 513.589 132.766 512.394C132.502 511.2 132.45 509.957 132.614 508.739C132.779 507.521 133.155 506.353 133.722 505.305C134.419 503.809 135.44 502.542 136.687 501.625C139.904 499.675 168.964 490.94 171.426 493.145C174.391 495.689 175.043 499.353 171.055 502.677C167.067 506.001 136.628 518.178 136.628 518.178L136.553 518.11Z" fill="#FFBE9D"/>
<path d="M142.336 513.225C140.993 513.58 139.735 514.268 138.652 515.241C137.568 516.214 136.684 517.448 136.064 518.856C135.384 520.371 135.18 522.108 135.486 523.774C135.956 526.27 137.01 528.573 138.535 530.437C140.06 532.301 141.999 533.656 144.145 534.358C149.349 536.223 166.296 531.864 166.296 531.864L162.382 519.365L174.243 514.921C179.076 512.717 176.734 504.067 170.922 505.746C169.024 506.289 149.127 511.292 142.336 513.225Z" fill="#FFBE9D"/>
<path d="M133.44 505.646C132.505 505.033 131.686 504.212 131.035 503.23C130.383 502.248 129.911 501.126 129.646 499.931C129.382 498.736 129.331 497.492 129.496 496.274C129.662 495.056 130.04 493.888 130.608 492.841C131.31 491.348 132.33 490.082 133.574 489.16C136.791 487.21 162.678 481.935 165.688 481.206C168.698 480.477 171.93 486.837 167.942 490.144C163.953 493.451 133.44 505.646 133.44 505.646Z" fill="#FFBE9D"/>
<path d="M162.693 493.756C161.214 494.334 159.697 494.777 158.157 495.079C155.339 495.791 151.44 496.775 147.125 497.691C143.45 498.352 139.924 499.833 136.747 502.049C135.503 503.104 134.39 504.348 133.44 505.747C133.44 505.747 133.559 505.238 133.989 504.441C134.625 503.322 135.428 502.34 136.361 501.54C137.717 500.37 139.216 499.433 140.809 498.759C142.771 497.944 144.783 497.298 146.829 496.826C151.158 495.842 155.087 495.028 157.934 494.468C159.499 494.071 161.092 493.832 162.693 493.756Z" fill="#EB996E"/>
<path d="M157.696 482.936C156.282 483.482 154.828 483.885 153.352 484.14L142.781 486.48C139.273 487.146 135.924 488.642 132.951 490.873C131.856 491.963 130.862 493.179 129.985 494.502C129.985 494.502 130.104 494.01 130.504 493.247C131.081 492.161 131.813 491.192 132.669 490.381C134.819 488.21 138.6 486.65 142.677 485.632C146.754 484.615 150.58 484.038 153.308 483.529C154.753 483.19 156.222 482.992 157.696 482.936Z" fill="#EB996E"/>
<path d="M163.093 507.611C161.772 508.218 160.408 508.695 159.016 509.036C156.481 509.816 152.937 510.851 148.993 511.597C145.609 512.095 142.341 513.339 139.371 515.26C138.27 516.198 137.274 517.285 136.405 518.5C136.405 518.5 136.509 518.042 136.924 517.329C137.539 516.333 138.296 515.462 139.163 514.752C142.104 512.626 145.412 511.255 148.86 510.732C152.818 509.986 156.273 509.036 158.912 508.442C160.28 508.017 161.68 507.739 163.093 507.611Z" fill="#EB996E"/>
<path d="M164.695 518.5C162.734 519.707 160.66 520.657 158.512 521.332C156.43 522.272 154.261 522.937 152.048 523.317C154.007 522.108 156.082 521.163 158.231 520.501C160.312 519.557 162.481 518.886 164.695 518.5Z" fill="#EB996E"/>
<path d="M769.964 322.681C771.771 319.659 774.168 317.16 776.966 315.382C779.764 313.604 782.886 312.596 786.083 312.438C789.281 312.28 792.467 312.976 795.389 314.471C798.311 315.965 800.888 318.218 802.916 321.05C804.945 323.882 806.369 327.216 807.075 330.787C807.782 334.358 807.751 338.068 806.986 341.623C806.222 345.178 804.744 348.481 802.669 351.269C800.595 354.057 797.981 356.254 795.036 357.686C798.316 359.53 800.828 362.778 802.027 366.727C803.226 370.676 803.014 375.007 801.439 378.779C799.863 382.55 797.051 385.459 793.612 386.873C790.173 388.288 786.385 388.093 783.071 386.332C781.455 392.844 775.079 396.779 769.178 396.321C763.277 395.863 757.954 391.861 753.921 386.909C749.724 381.761 746.705 375.505 745.135 368.699C743.565 361.892 743.491 354.747 744.922 347.901C748.065 334.333 758.266 322.969 770.438 320.629" fill="#263238"/>
<path d="M779.334 312.064C779.334 312.064 779.438 312.217 779.586 312.539C779.801 313.011 779.99 313.498 780.149 313.998C780.772 315.87 781.156 317.835 781.291 319.832C781.516 322.882 781.218 325.952 780.416 328.872C779.415 332.604 777.592 335.979 775.123 338.675V338.115C777.166 341.307 778.513 345.011 779.052 348.919C779.779 353.698 779.23 358.617 777.476 363.034C775.723 367.451 772.846 371.161 769.222 373.68C767.069 375.227 764.687 376.313 762.194 376.886C761.524 377.041 760.845 377.143 760.163 377.191C759.921 377.217 759.678 377.217 759.437 377.191C759.437 377.089 760.415 377.004 762.135 376.546C764.545 375.846 766.838 374.7 768.926 373.154C771.331 371.36 773.393 369.025 774.987 366.292C776.581 363.559 777.672 360.484 778.196 357.254C778.72 354.024 778.666 350.705 778.035 347.5C777.405 344.295 776.213 341.269 774.53 338.607L774.337 338.302L774.575 338.047C776.977 335.473 778.764 332.239 779.764 328.651C780.586 325.823 780.933 322.842 780.787 319.866C780.626 317.2 780.137 314.574 779.334 312.064Z" fill="#455A64"/>
<path d="M838.626 307.35C837.929 307.911 837.195 308.41 836.431 308.842C834.949 309.741 832.903 311.013 830.308 312.539C825.089 315.609 817.824 319.663 809.654 323.835C801.485 328.007 793.983 331.467 788.512 333.858C785.784 335.045 783.559 335.995 782.003 336.606C781.217 336.962 780.409 337.251 779.586 337.471C780.328 337.005 781.101 336.608 781.899 336.283L788.319 333.281C793.731 330.737 801.188 327.176 809.343 323.105C817.498 319.035 824.792 314.982 830.1 312.064L836.342 308.672C837.073 308.166 837.836 307.724 838.626 307.35Z" fill="#263238"/>
<path d="M819.307 285.37C819.44 285.556 811.3 294.46 801.115 305.247C790.929 316.033 782.552 324.666 782.403 324.479C782.255 324.293 790.41 315.457 800.64 304.602C810.87 293.748 819.159 285.2 819.307 285.37Z" fill="#263238"/>
<path d="M730.644 248.634C730.644 230.385 711.577 229.486 701.939 234.048C696.75 225.908 693.043 221.803 681.108 220.955C672.345 220.311 658.986 225.348 652.255 235.439C648.95 240.568 646.88 246.598 646.25 252.928C645.62 259.258 646.454 265.667 648.667 271.513C650.15 275.363 652.27 279.23 651.855 283.385C651.247 289.423 645.835 292.951 642.336 297.513C639.467 301.429 637.818 306.324 637.646 311.429C637.474 316.535 638.79 321.561 641.387 325.717C644.782 330.805 650.179 334.486 651.973 340.591C653.456 345.679 652.062 351.293 652.344 356.686C652.863 366.608 659.446 375.342 667.512 378.921C675.577 382.499 684.814 381.702 692.969 378.31" fill="#263238"/>
<path d="M660.899 440.061L690.805 424.797L691.828 401.918C691.828 401.918 669.351 398.119 664.176 364.776C661.611 348.189 661.922 320.9 662.797 298.632C663.598 278.534 682.191 258.114 699.701 259.878L756.576 271.055V281.858L757.095 419.641L786.511 435.872L719.791 526.031L660.899 440.061Z" fill="#A36957"/>
<path d="M673.428 322.241C673.435 323.357 673.824 324.425 674.511 325.218C675.198 326.01 676.129 326.463 677.105 326.481C677.582 326.513 678.059 326.436 678.51 326.255C678.961 326.074 679.375 325.792 679.73 325.426C680.085 325.06 680.372 324.617 680.575 324.122C680.779 323.628 680.894 323.092 680.915 322.546C680.908 321.429 680.519 320.359 679.832 319.564C679.146 318.769 678.215 318.311 677.238 318.289C676.76 318.255 676.28 318.331 675.827 318.512C675.375 318.693 674.959 318.976 674.604 319.345C674.248 319.713 673.961 320.159 673.759 320.657C673.557 321.154 673.445 321.693 673.428 322.241Z" fill="#263238"/>
<path d="M668.194 312.607C668.668 313.15 671.47 310.691 675.503 310.623C679.536 310.555 682.531 312.811 682.917 312.234C683.139 311.98 682.65 310.979 681.345 309.928C679.59 308.593 677.521 307.901 675.414 307.943C673.313 307.978 671.277 308.781 669.602 310.233C668.372 311.335 667.956 312.353 668.194 312.607Z" fill="#263238"/>
<path d="M711.131 322.241C711.135 323.36 711.522 324.433 712.209 325.228C712.897 326.024 713.83 326.48 714.808 326.498C715.286 326.53 715.765 326.453 716.216 326.27C716.668 326.088 717.083 325.805 717.438 325.437C717.793 325.069 718.08 324.624 718.283 324.128C718.485 323.631 718.599 323.094 718.618 322.546C718.607 321.43 718.217 320.362 717.532 319.568C716.846 318.774 715.917 318.316 714.941 318.289C714.463 318.255 713.983 318.331 713.531 318.512C713.078 318.693 712.662 318.976 712.307 319.345C711.951 319.713 711.664 320.159 711.462 320.657C711.261 321.154 711.148 321.693 711.131 322.241Z" fill="#263238"/>
<path d="M707.87 312.657C708.344 313.217 711.161 310.741 715.194 310.673C719.227 310.605 722.222 312.861 722.608 312.284C722.815 312.03 722.326 311.029 721.021 309.978C719.265 308.649 717.196 307.962 715.091 308.01C712.991 308.042 710.955 308.838 709.279 310.283C708.048 311.402 707.648 312.42 707.87 312.657Z" fill="#263238"/>
<path d="M693.769 347.189C693.769 346.935 691.263 346.494 687.186 345.968C686.148 345.866 685.17 345.663 684.992 344.866C684.883 343.648 685.105 342.422 685.629 341.355C686.548 338.472 687.512 335.47 688.595 332.315C692.627 319.443 695.519 308.877 695.074 308.69C694.629 308.503 690.982 318.866 686.949 331.654C685.97 334.825 685.051 337.861 684.161 340.744C683.538 342.184 683.375 343.829 683.702 345.391C683.857 345.805 684.093 346.172 684.391 346.466C684.689 346.76 685.041 346.972 685.422 347.087C685.994 347.253 686.581 347.338 687.171 347.342C691.219 347.478 693.754 347.461 693.769 347.189Z" fill="#263238"/>
<path d="M691.828 401.952C705.596 401.913 719.085 397.504 730.792 389.215C730.792 389.215 720.769 412.789 691.457 410.262L691.828 401.952Z" fill="#7C3B29"/>
<path d="M695.638 358.281C696.392 357.161 697.381 356.278 698.514 355.715C699.648 355.151 700.887 354.926 702.117 355.059C703.007 355.138 703.874 355.418 704.668 355.884C705.462 356.35 706.168 356.992 706.743 357.772C707.295 358.534 707.629 359.471 707.7 360.456C707.772 361.442 707.578 362.429 707.143 363.284C706.516 364.138 705.678 364.756 704.74 365.059C703.801 365.361 702.805 365.334 701.88 364.98C699.963 364.251 698.19 363.098 696.661 361.588C696.203 361.226 695.806 360.772 695.49 360.248C695.347 359.996 695.271 359.701 695.271 359.4C695.271 359.099 695.347 358.805 695.49 358.552" fill="#7C3B29"/>
<path d="M705.749 350.139C705.097 350.139 705.156 355.126 701.464 358.755C697.772 362.384 693.102 361.927 693.072 362.639C693.072 362.944 694.125 363.589 696.038 363.606C698.606 363.597 701.089 362.552 703.051 360.655C704.932 358.829 706.118 356.238 706.357 353.43C706.49 351.344 705.986 350.105 705.749 350.139Z" fill="#263238"/>
<path d="M706.55 294.595C706.965 295.833 710.998 295.155 715.728 295.714C720.458 296.274 724.328 297.682 724.935 296.528C725.217 295.986 724.535 294.832 722.963 293.645C720.88 292.196 718.536 291.308 716.108 291.05C713.681 290.791 711.233 291.168 708.952 292.153C707.232 293.001 706.372 294.001 706.55 294.595Z" fill="#263238"/>
<path d="M669.468 299.225C670.195 300.242 672.967 299.106 676.303 298.987C679.639 298.869 682.486 299.564 683.124 298.462C683.405 297.919 682.931 296.867 681.641 295.901C679.958 294.75 678.015 294.195 676.057 294.307C674.099 294.419 672.214 295.192 670.64 296.528C669.528 297.631 669.157 298.716 669.468 299.225Z" fill="#263238"/>
<path d="M655.087 257.792C659.535 269.664 669.751 287.269 680.93 288.829C686.534 289.52 692.2 288.562 697.39 286.045C702.58 283.528 707.121 279.536 710.583 274.447C712.274 283.978 721.525 289.032 729.858 290.61C735.789 291.729 742.045 291.797 747.65 289.236C753.254 286.675 758.029 281.112 758.903 274.328C759.778 267.544 751.357 250.821 745.441 249.566" fill="#263238"/>
<path d="M731.962 281.537C730.007 286.542 729.858 292.228 731.549 297.357C733.24 302.487 736.634 306.645 740.992 308.927C736.87 314.778 736.128 323.072 737.7 330.381C739.272 337.691 742.875 344.221 746.744 350.309C746.744 350.309 736.692 366.947 756.93 379.141C756.93 379.141 771.134 374.053 764.788 349.614C764.283 347.864 764.379 345.961 765.055 344.289C765.939 342.871 767.158 341.771 768.569 341.117C773.906 337.718 777.859 332.054 779.576 325.35C781.293 318.645 780.636 311.436 777.747 305.281C776.855 303.717 776.189 301.999 775.775 300.193C775.375 297.445 773.536 290.271 774.292 287.642C778.637 273.922 773.047 256.877 758.976 248.414C747.693 241.63 733.563 240.493 724.875 251.229" fill="#263238"/>
<path d="M810.53 548.335L829.805 462.093L775.732 428.055L723.542 520.08L676.26 430.599L627.554 455.818C624.352 457.482 621.778 460.407 620.304 464.061L576.239 600.385L635.783 622.433L642.603 590.837L650.447 645.397L627.792 788.573L822.214 787.759L787.756 640.767L792.545 607.983L810.53 548.335Z" fill="#263238"/>
<g opacity="0.3">
<path d="M647.303 660.118C660.647 662.696 672.656 649.178 686.178 649.06C698.648 648.958 708.997 660.135 721.14 663.374C726.492 664.799 732.334 664.748 736.96 668.106C740.518 670.684 742.891 674.89 745.322 678.808C757.195 697.35 774.514 710.374 794.102 715.492C797.067 716.255 803.71 718.884 805.533 716.018L803.606 707.233L801.916 680.588L736.767 626.316L662.411 630.489L647.303 660.118Z" fill="black"/>
</g>
<path d="M790.113 535.309H749.889V542.924H790.113V535.309Z" fill="#263238"/>
<path d="M792.841 628.352C809.15 634.966 826.942 633.965 843.963 631.099C848.011 630.404 852.237 629.522 855.424 626.588C856.492 625.621 859.072 623.196 859.027 622.551C858.909 620.771 856.062 618.396 854.446 616.921C848.253 611.447 841.106 607.555 833.487 605.507C825.868 603.459 817.953 603.303 810.277 605.049C806.184 605.891 802.27 607.618 798.742 610.137C795.287 612.782 793.123 614.241 791.937 618.803" fill="#263238"/>
<g opacity="0.3">
<path d="M792.841 628.352C809.15 634.966 826.942 633.965 843.963 631.099C848.011 630.404 852.237 629.522 855.424 626.588C856.492 625.621 859.072 623.196 859.027 622.551C858.909 620.771 856.062 618.396 854.446 616.921C848.253 611.447 841.106 607.555 833.487 605.507C825.868 603.459 817.953 603.303 810.277 605.049C806.184 605.891 802.27 607.618 798.742 610.137C795.287 612.782 793.123 614.241 791.937 618.803" fill="black"/>
</g>
<path d="M859.028 622.552C859.028 622.552 841.947 506.02 840.895 495.623C838.241 469.844 829.76 461.602 829.76 461.602L790.113 600.385L792.856 628.352C792.856 628.352 805.385 606.779 859.028 622.552Z" fill="#263238"/>
<path d="M837.173 528.967C836.991 529.948 836.743 530.912 836.431 531.85C835.927 533.699 835.082 536.327 833.985 539.55C831.07 547.93 827.601 556.044 823.606 563.82C819.593 571.574 815.042 578.947 809.996 585.868C808.053 588.513 806.422 590.616 805.251 592.007C804.669 592.754 804.045 593.456 803.383 594.11C803.876 593.281 804.426 592.498 805.029 591.77C806.126 590.311 807.697 588.157 809.58 585.461C814.468 578.437 818.927 571.036 822.924 563.311C826.9 555.591 830.427 547.58 833.481 539.329C834.637 536.141 835.557 533.546 836.15 531.748C836.43 530.793 836.772 529.864 837.173 528.967Z" fill="#263238"/>
<path d="M650.194 642.496C650.146 642.378 650.116 642.252 650.105 642.123C650.105 641.817 650.001 641.444 649.927 640.986C649.794 639.918 649.586 638.476 649.334 636.644C648.771 632.795 647.985 627.367 647.006 620.702C644.96 607.168 641.995 588.682 638.763 568.16C635.53 547.638 632.565 529.152 630.415 515.584L627.969 499.642C627.732 497.827 627.524 496.368 627.376 495.3L627.272 494.163C627.249 494.035 627.249 493.902 627.272 493.773C627.317 493.892 627.347 494.018 627.361 494.147C627.361 494.452 627.48 494.825 627.554 495.266C627.732 496.334 627.969 497.776 628.28 499.591C628.933 503.424 629.837 508.817 630.964 515.465C633.203 528.881 636.272 547.435 639.548 567.94C642.825 588.444 645.657 607.032 647.555 620.516C648.504 627.3 649.201 632.727 649.645 636.509C649.838 638.357 649.986 639.816 650.105 640.885C650.105 641.342 650.105 641.716 650.194 642.021C650.213 642.178 650.213 642.338 650.194 642.496Z" fill="#263238"/>
<path d="M813.465 502.016C813.434 502.458 813.364 502.895 813.258 503.322C813.08 504.254 812.843 505.492 812.531 507.036C811.864 510.343 810.93 514.99 809.774 520.604C807.416 532.12 804.154 548.011 800.7 565.616C797.245 583.22 794.235 599.179 792.248 610.78C791.27 616.58 790.469 621.278 789.98 624.535C789.743 626.095 789.535 627.333 789.387 628.283C789.342 628.721 789.257 629.153 789.135 629.572C789.136 629.128 789.171 628.686 789.239 628.249C789.357 627.299 789.505 626.044 789.683 624.484C790.084 621.194 790.795 616.479 791.715 610.661C793.568 599.027 796.474 583.034 799.943 565.412C803.413 547.791 806.749 531.933 809.24 520.451C810.485 514.786 811.508 510.173 812.205 506.883C812.561 505.357 812.858 504.136 813.065 503.203C813.164 502.793 813.298 502.395 813.465 502.016Z" fill="#263238"/>
<path d="M663.73 436.567C663.856 436.728 663.965 436.904 664.057 437.093L664.976 438.789C665.791 440.247 666.948 442.35 668.43 445.047L681.003 468.096L722.518 545.043H721.881L723.838 541.872C725.958 538.48 728.034 535.088 729.991 531.967V532.544L691.679 459.87C686.875 450.695 683.005 443.283 680.321 438.127L677.282 432.242L676.511 430.699C676.409 430.53 676.325 430.348 676.259 430.156C676.374 430.311 676.478 430.475 676.57 430.648L677.401 432.158C678.142 433.514 679.209 435.55 680.559 437.975C683.302 443.063 687.246 450.44 692.123 459.565L730.673 532.086L730.791 532.323L730.658 532.561C728.686 535.715 726.61 539.073 724.505 542.465L722.533 545.637L722.192 546.18L721.895 545.62L680.544 468.452C675.325 458.632 671.099 450.695 668.164 445.149C666.681 442.435 665.613 440.298 664.828 438.806L663.982 437.11C663.882 436.939 663.798 436.757 663.73 436.567Z" fill="#263238"/>
<path d="M775.688 427.545C775.637 427.722 775.562 427.888 775.465 428.037L774.709 429.427L771.744 434.753L760.772 454.342L723.794 519.807V519.332C725.425 522.385 727.16 525.642 728.924 528.915L730.585 532.019H729.932C737.85 518.451 745.145 505.459 751.831 493.672C758.518 481.885 764.612 471.353 769.92 462.669C775.228 453.986 779.661 447.1 782.775 442.317L786.407 436.941L787.371 435.55C787.474 435.393 787.588 435.245 787.712 435.109C787.636 435.29 787.541 435.461 787.43 435.618L786.526 437.043C785.696 438.331 784.524 440.18 783.012 442.521C780.047 447.286 775.599 454.223 770.365 462.873C765.131 471.522 759.052 482.139 752.424 493.96C745.797 505.781 738.532 518.976 730.614 532.544L730.273 533.121L729.962 532.527L728.301 529.424L723.186 519.841L723.053 519.621L723.186 519.383L760.372 454.07L771.536 434.634L774.59 429.394L775.391 428.054L775.688 427.545Z" fill="#263238"/>
<path d="M669.513 590.684C666.577 589.234 663.275 589.076 660.243 590.24C657.211 591.405 654.662 593.81 653.085 596.993C651.889 599.706 651.42 602.763 651.737 605.78C652.053 608.797 653.141 611.64 654.865 613.953C658.378 618.227 666.889 621.144 670.848 615.988L669.513 590.684Z" fill="#EBEBEB"/>
<path d="M669.513 590.682C669.616 591.275 669.68 591.876 669.705 592.48C669.794 593.803 669.928 595.533 670.076 597.653C670.358 602.283 670.743 608.609 671.188 616.038V616.207L671.099 616.326C670.215 617.38 669.131 618.189 667.93 618.689C666.73 619.189 665.445 619.367 664.175 619.209C661.466 619.006 658.853 617.988 656.599 616.258C654.41 614.605 652.783 612.145 651.987 609.287C651.248 606.66 651.08 603.865 651.498 601.147C651.864 598.675 652.812 596.365 654.241 594.464C655.473 592.84 656.988 591.529 658.689 590.614C661.174 589.291 663.966 588.916 666.651 589.546C667.625 589.759 668.566 590.143 669.438 590.682C669.364 590.682 668.46 590.258 666.607 589.885C663.99 589.405 661.308 589.861 658.926 591.191C657.162 592.111 655.621 593.512 654.44 595.272C653.259 597.031 652.473 599.095 652.15 601.282C651.759 603.868 651.933 606.525 652.655 609.016C653.402 611.686 654.924 613.984 656.969 615.529C659.112 617.166 661.59 618.136 664.16 618.344C665.317 618.501 666.491 618.353 667.59 617.912C668.69 617.471 669.687 616.749 670.506 615.8L670.417 616.088C670.091 608.728 669.824 602.52 669.616 597.873C669.542 595.719 669.483 593.956 669.438 592.616C669.425 591.97 669.45 591.324 669.513 590.682Z" fill="#263238"/>
<path d="M658.912 590.684C658.912 590.684 663.138 491.061 665.317 476.78C667.497 462.5 673.101 439.468 681.923 425.442C690.359 412.095 691.19 411.162 691.19 411.162L690.626 423.594C682.624 439.684 676.909 457.128 673.694 475.271C668.994 503.492 665.762 590.599 665.762 590.599L658.912 590.684Z" fill="#263238"/>
<path d="M782.685 608.492C780.21 608.461 777.764 607.885 775.479 606.796L776.606 603.658C779.628 605.173 783.008 605.477 786.199 604.523C787.774 603.992 789.223 603.06 790.437 601.797C791.652 600.534 792.601 598.973 793.212 597.23C794.177 593.786 794.229 590.092 793.36 586.613C792.763 584.036 792.025 581.504 791.151 579.032C790.781 577.93 790.41 576.828 790.054 575.64C783.827 555.611 784.909 533.24 785.858 513.414L788.824 513.601C787.889 533.054 786.837 555.119 792.871 574.504C793.212 575.606 793.568 576.675 793.924 577.76C794.853 580.363 795.635 583.031 796.266 585.748C797.294 589.895 797.201 594.299 796 598.384C795.24 600.614 794.042 602.614 792.5 604.231C790.958 605.849 789.112 607.039 787.104 607.712C785.673 608.22 784.184 608.483 782.685 608.492Z" fill="#E0E0E0"/>
<path d="M782.403 609.984C777.451 609.984 773.122 607.322 769.356 601.996C764.463 595.11 763.677 578.032 762.995 562.988C762.758 557.595 762.521 552.507 762.106 548.81C760.623 535.784 754.114 518.282 754.055 518.129L756.768 516.789C757.05 517.518 763.529 534.868 765.041 548.386C765.471 552.202 765.708 557.357 765.96 562.802C766.583 576.641 767.369 593.872 771.654 599.893C778.118 609.001 785.962 608.916 797.082 599.605L798.831 602.352C792.708 607.423 787.296 609.984 782.403 609.984Z" fill="#EBEBEB"/>
<path d="M792.856 602.505C793.409 600.763 794.173 599.119 795.125 597.62C796.031 596.157 797.406 595.163 798.95 594.856C799.722 594.751 800.503 594.925 801.184 595.354C801.864 595.783 802.411 596.445 802.746 597.247C803.038 598.088 803.129 599.003 803.009 599.897C802.889 600.791 802.563 601.633 802.064 602.335C801.096 603.629 799.754 604.484 798.283 604.743C796.851 604.955 795.401 604.955 793.968 604.743" fill="#263238"/>
<path d="M763.262 454.698C774.876 471.748 781.838 492.336 783.278 513.888H789.446C788.171 489.186 779.699 465.684 765.383 447.133C766.939 441.504 768.075 435.734 768.778 429.885C770.142 416.639 757.436 408.617 757.436 408.617V418.658C759.04 419.698 760.369 421.215 761.282 423.048C762.196 424.881 762.659 426.962 762.625 429.071C762.343 436.211 757.658 451.39 753.077 464.483C749.219 475.223 747.493 486.808 748.021 498.403C748.451 513.243 753.521 519.977 753.521 519.977L759.645 517.009C759.645 517.009 755.983 511.768 754.396 497.437C753.18 486.481 756.012 477.916 758.473 469.995C759.719 466.061 761.513 460.634 763.262 454.698Z" fill="#263238"/>
<path d="M586.054 603.608L578.64 635.95C577.395 641.085 577.338 646.501 578.474 651.668C579.609 656.836 581.9 661.577 585.12 665.427C585.52 665.885 585.935 666.343 586.35 666.767C590.222 670.729 594.982 673.379 600.097 674.418C605.212 675.458 610.479 674.846 615.307 672.652L692.094 637.697L680.752 598.096L622.616 617.04L586.054 603.608Z" fill="#A36957"/>
<path d="M649.097 549.709L663.019 634.509C663.31 636.3 664.155 637.911 665.399 639.048C666.643 640.184 668.204 640.771 669.795 640.699L776.161 636.001C777.917 635.922 779.574 635.052 780.771 633.581C781.968 632.11 782.608 630.157 782.552 628.149L780.12 548.03C780.062 546.061 779.337 544.195 778.097 542.827C776.857 541.459 775.2 540.698 773.478 540.703H655.62C654.643 540.701 653.678 540.946 652.793 541.42C651.908 541.894 651.126 542.587 650.503 543.447C649.879 544.308 649.43 545.315 649.187 546.398C648.944 547.48 648.913 548.611 649.097 549.709Z" fill="#455A64"/>
<path d="M765.307 584.238C763.316 584.233 761.369 584.917 759.723 586.2C758.077 587.484 756.809 589.307 756.085 591.429C754.603 596.025 752.29 601.385 749.799 602.928C745.188 605.811 737.211 608.118 733.03 605.761C728.849 603.403 712.065 586.155 709.129 588.071C706.194 589.988 703.673 594.296 706.609 598.145C709.545 601.995 725.024 613.494 722.058 617.344C719.093 621.194 686.474 604.285 681.389 605.777C676.303 607.27 673.427 610.866 676.363 613.121C679.298 615.377 701.568 624.993 702.769 628.385C702.769 628.385 669.231 618.311 667.971 620.719C666.71 623.128 664.62 626.944 667.971 628.385C671.321 629.827 700.263 638.459 702.769 639.901C706.93 641.881 711.272 643.326 715.712 644.209C716.617 644.209 723.126 646.736 729.219 649.11C736.009 651.809 743.425 651.586 750.081 648.483L753.476 646.889C756.048 645.682 758.226 643.587 759.706 640.896C761.187 638.206 761.896 635.053 761.734 631.879L761.052 618.803L764.714 607.999L765.307 584.238Z" fill="#A36957"/>
<path d="M738.442 650.942C738.442 650.942 799.647 714.321 820.256 714.508C841.977 714.695 854.209 688.915 851.896 672.888C850.65 664.408 847.448 619.651 847.448 619.651C832.903 615.105 811.167 613.07 795.673 624.857L801.322 650.942L760.46 628.351L738.442 650.942Z" fill="#A36957"/>
<path d="M859.028 622.551C858.792 622.538 858.558 622.492 858.331 622.415L856.345 621.873C854.639 621.398 852.163 620.702 849.094 619.905C841.133 617.711 832.968 616.629 824.778 616.683C820.298 616.845 815.836 617.412 811.434 618.379C807.819 619.101 804.288 620.29 800.907 621.923C798.639 623.05 796.522 624.541 794.621 626.35C793.301 627.656 792.664 628.504 792.604 628.453C792.714 628.21 792.853 627.987 793.02 627.792C793.458 627.193 793.928 626.627 794.428 626.096C796.284 624.152 798.395 622.556 800.685 621.364C804.075 619.612 807.641 618.342 811.301 617.582C815.756 616.542 820.279 615.935 824.823 615.767C833.072 615.693 841.293 616.868 849.272 619.261C852.341 620.143 854.803 620.957 856.493 621.516L858.42 622.212C858.806 622.432 859.043 622.517 859.028 622.551Z" fill="#263238"/>
<path d="M908.875 712.1C912.004 717.188 917.994 715.408 920.737 712.304C923.48 709.2 924.636 704.723 925.674 700.432C928.061 690.697 930.448 680.47 928.565 670.599C928.115 667.602 926.944 664.807 925.185 662.526C924.295 661.4 923.163 660.559 921.902 660.089C920.64 659.619 919.293 659.535 917.994 659.847C915.028 660.796 913.131 664.205 911.796 667.428C907.867 676.976 905.841 687.403 905.865 697.956C905.865 702.857 906.429 708.013 908.831 712.033" fill="#263238"/>
<g opacity="0.2">
<path d="M908.875 712.1C912.004 717.188 917.994 715.408 920.737 712.304C923.48 709.2 924.636 704.723 925.674 700.432C928.061 690.697 930.448 680.47 928.565 670.599C928.115 667.602 926.944 664.807 925.185 662.526C924.295 661.4 923.163 660.559 921.902 660.089C920.64 659.619 919.293 659.535 917.994 659.847C915.028 660.796 913.131 664.205 911.796 667.428C907.867 676.976 905.841 687.403 905.865 697.956C905.865 702.857 906.429 708.013 908.831 712.033" fill="black"/>
</g>
<path d="M920.647 737.539C925.803 734.722 931.61 733.861 937.223 735.08C940.292 735.365 943.188 736.816 945.452 739.202C947.513 741.763 947.928 746.308 945.601 748.547C944.091 749.735 942.267 750.287 940.441 750.107C935.993 750.107 931.174 749.242 927.69 752.295C925.703 753.991 924.398 756.908 922.011 757.773C920.817 758.096 919.564 757.969 918.439 757.409C917.313 756.85 916.377 755.888 915.769 754.669C914.611 752.162 914.34 749.241 915.013 746.511C915.282 744.619 915.931 742.825 916.908 741.268C917.886 739.711 919.166 738.435 920.647 737.539Z" fill="#263238"/>
<path d="M900.483 719.411C902.061 717.022 903.104 714.227 903.52 711.271C903.936 708.314 903.713 705.286 902.87 702.451C901.125 696.793 898.046 691.798 893.974 688.018C889.367 683.414 884.025 679.872 878.243 677.588C876.003 676.585 873.602 676.139 871.2 676.282C869.99 676.367 868.816 676.79 867.782 677.514C866.748 678.239 865.885 679.242 865.269 680.437C863.653 684.033 865.269 688.374 866.989 691.919C870.035 698.162 873.505 704.122 877.368 709.744C880.467 714.255 884.04 718.716 888.74 720.717C893.44 722.718 898.333 722.413 900.794 718.699" fill="#263238"/>
<path d="M909.216 788.166C909.377 787.41 909.467 786.637 909.483 785.859C909.617 784.163 909.78 782.111 909.972 779.618C910.222 776.532 910.613 773.464 911.144 770.425C911.834 766.732 912.781 763.108 913.976 759.588C915.149 756.065 916.756 752.753 918.75 749.751C920.364 747.303 922.436 745.298 924.814 743.883C926.427 742.951 928.158 742.316 929.944 742C930.614 741.961 931.28 741.847 931.931 741.661C931.261 741.576 930.584 741.576 929.914 741.661C928.049 741.844 926.23 742.419 924.547 743.357C922.044 744.728 919.855 746.749 918.157 749.259C916.082 752.309 914.414 755.692 913.205 759.3C911.993 762.876 911.05 766.564 910.388 770.324C909.895 773.396 909.563 776.5 909.394 779.618C909.231 782.28 909.187 784.434 909.157 785.91C909.108 786.662 909.128 787.418 909.216 788.166Z" fill="#263238"/>
<path d="M909.557 783.349C909.595 782.994 909.595 782.635 909.557 782.28C909.557 781.483 909.557 780.482 909.557 779.244C909.557 776.599 909.557 772.783 909.557 768.068C909.705 758.638 910.328 745.613 911.603 731.298C912.878 716.984 914.568 704.162 916.229 694.851C916.615 692.528 916.985 690.442 917.356 688.61C917.727 686.778 917.993 685.218 918.275 683.929C918.557 682.64 918.72 681.741 918.883 680.961C918.996 680.938 919.097 680.867 919.167 680.763C919.237 680.658 919.27 680.528 919.259 680.397C919.249 680.266 919.196 680.144 919.112 680.056C919.027 679.967 918.916 679.918 918.801 679.918C918.687 679.918 918.576 679.967 918.491 680.056C918.407 680.144 918.354 680.266 918.344 680.397C918.333 680.528 918.366 680.658 918.436 680.763C918.506 680.867 918.607 680.938 918.72 680.961C918.512 681.724 918.275 682.657 917.964 683.878C917.652 685.099 917.297 686.711 916.896 688.542C916.496 690.374 916.081 692.443 915.651 694.767C913.46 706.825 911.832 719.008 910.773 731.265C909.498 745.613 908.964 758.655 908.979 768.119C908.979 772.85 909.083 776.599 909.201 779.312C909.201 780.533 909.335 781.551 909.379 782.348C909.409 782.688 909.469 783.023 909.557 783.349Z" fill="#263238"/>
<path d="M909.439 758.113C909.513 757.057 909.513 755.997 909.439 754.941C909.32 752.906 909.053 749.955 908.519 746.343C907.076 736.963 904.647 727.817 901.284 719.105C898.048 710.269 893.431 702.183 887.658 695.242C886.664 694.03 885.599 692.897 884.47 691.85C883.981 691.375 883.551 690.917 883.121 690.544L881.876 689.594C881.135 688.959 880.352 688.392 879.533 687.898C882.24 690.298 884.815 692.886 887.243 695.649C892.842 702.636 897.355 710.666 900.587 719.393C902.434 724.154 904.004 729.049 905.287 734.047C906.369 738.124 907.269 742.262 907.986 746.444C908.579 750.006 908.934 752.923 909.142 754.924C909.175 755.994 909.274 757.059 909.439 758.113Z" fill="#263238"/>
<path d="M844.556 133.34H844.186C840.82 133.34 838.092 136.461 838.092 140.31V208.54C838.092 212.39 840.82 215.511 844.186 215.511H844.556C847.922 215.511 850.65 212.39 850.65 208.54V140.31C850.65 136.461 847.922 133.34 844.556 133.34Z" fill="#E0E0E0"/>
<path d="M844.556 157.898H844.186C840.82 157.898 838.092 161.019 838.092 164.869V208.541C838.092 212.391 840.82 215.512 844.186 215.512H844.556C847.922 215.512 850.65 212.391 850.65 208.541V164.869C850.65 161.019 847.922 157.898 844.556 157.898Z" fill="#263238"/>
<path d="M865.122 133.34H864.751C861.385 133.34 858.657 136.461 858.657 140.31V208.54C858.657 212.39 861.385 215.511 864.751 215.511H865.122C868.487 215.511 871.215 212.39 871.215 208.54V140.31C871.215 136.461 868.487 133.34 865.122 133.34Z" fill="#E0E0E0"/>
<path d="M865.122 170.635H864.751C861.385 170.635 858.657 173.756 858.657 177.605V208.54C858.657 212.39 861.385 215.511 864.751 215.511H865.122C868.487 215.511 871.215 212.39 871.215 208.54V177.605C871.215 173.756 868.487 170.635 865.122 170.635Z" fill="#263238"/>
<path d="M888.384 133.34H888.014C884.648 133.34 881.92 136.461 881.92 140.31V208.54C881.92 212.39 884.648 215.511 888.014 215.511H888.384C891.75 215.511 894.478 212.39 894.478 208.54V140.31C894.478 136.461 891.75 133.34 888.384 133.34Z" fill="#E0E0E0"/>
<path d="M888.384 148.197H888.014C884.648 148.197 881.92 151.318 881.92 155.168V208.558C881.92 212.408 884.648 215.528 888.014 215.528H888.384C891.75 215.528 894.478 212.408 894.478 208.558V155.168C894.478 151.318 891.75 148.197 888.384 148.197Z" fill="#263238"/>
<path d="M844.556 215.527C844.556 215.527 845.119 215.527 846.128 215.188C847.593 214.709 848.84 213.604 849.612 212.101C850.176 211.039 850.468 209.817 850.457 208.574C850.457 207.166 850.457 205.657 850.457 204.028C850.457 200.772 850.457 197.058 850.457 192.971C850.457 184.762 850.457 175.01 850.457 164.138C850.457 158.728 850.457 153.047 850.457 147.178V142.735C850.548 141.276 850.463 139.809 850.205 138.376C849.814 136.982 849.03 135.774 847.976 134.943C846.922 134.111 845.657 133.703 844.378 133.78C843.105 133.789 841.871 134.282 840.869 135.182C839.868 136.082 839.157 137.337 838.848 138.749C838.66 140.209 838.6 141.686 838.67 143.159V147.552C838.67 153.437 838.67 159.118 838.67 164.512C838.67 175.332 838.67 185.084 838.67 193.344C838.67 197.431 838.67 201.128 838.67 204.402C838.67 206.098 838.67 207.556 838.67 208.93C838.732 210.147 839.086 211.32 839.693 212.322C840.557 213.758 841.857 214.773 843.34 215.171C844.363 215.409 844.927 215.358 844.927 215.409C844.392 215.513 843.845 215.513 843.311 215.409C841.755 215.067 840.371 214.061 839.441 212.593C838.769 211.524 838.373 210.261 838.299 208.947C838.299 207.522 838.299 206.03 838.299 204.402C838.299 201.128 838.299 197.431 838.299 193.344C838.299 185.135 838.299 175.383 838.21 164.512C838.21 159.084 838.21 153.403 838.21 147.552C838.21 146.076 838.21 144.584 838.21 143.091V140.903C838.188 140.106 838.253 139.308 838.403 138.529C838.758 136.926 839.567 135.504 840.705 134.485C841.843 133.466 843.244 132.908 844.69 132.898C846.139 132.835 847.568 133.305 848.767 134.238C849.935 135.188 850.804 136.544 851.243 138.105C851.436 138.877 851.536 139.676 851.539 140.479V142.735C851.539 144.244 851.539 145.72 851.539 147.195C851.539 153.098 851.539 158.779 851.539 164.155C851.539 174.976 851.539 184.728 851.45 192.987C851.45 197.075 851.45 200.789 851.45 204.045C851.45 205.741 851.45 207.183 851.45 208.591C851.434 209.899 851.106 211.177 850.502 212.288C850.019 213.136 849.38 213.854 848.63 214.39C847.879 214.926 847.036 215.268 846.157 215.392C845.634 215.542 845.093 215.588 844.556 215.527Z" fill="#263238"/>
<path d="M865.106 215.527C865.106 215.527 865.67 215.527 866.678 215.188C867.938 214.788 869.048 213.922 869.833 212.726C870.619 211.53 871.037 210.07 871.022 208.574C871.022 207.166 871.022 205.656 871.022 204.028C871.022 200.772 871.022 197.058 871.022 192.97C871.022 184.762 871.022 175.01 871.022 164.138C871.022 158.728 871.022 153.047 871.022 147.178V142.735C871.108 141.275 871.019 139.808 870.755 138.376C870.354 136.991 869.573 135.791 868.528 134.953C867.483 134.116 866.23 133.687 864.955 133.729C863.68 133.77 862.451 134.281 861.45 135.186C860.449 136.09 859.729 137.34 859.398 138.749C859.215 140.209 859.161 141.686 859.235 143.159C859.235 144.651 859.235 146.144 859.235 147.619C859.235 153.504 859.235 159.186 859.235 164.579C859.235 175.4 859.235 185.152 859.146 193.411C859.146 197.499 859.146 201.196 859.146 204.469C859.146 206.165 859.146 207.624 859.146 208.998C859.222 210.211 859.574 211.381 860.169 212.39C861.037 213.828 862.343 214.844 863.831 215.239C864.839 215.476 865.418 215.425 865.403 215.476C864.868 215.581 864.322 215.581 863.787 215.476C862.446 215.183 861.229 214.39 860.324 213.221C859.42 212.051 858.881 210.572 858.79 209.015C858.79 207.59 858.79 206.097 858.79 204.469C858.79 201.196 858.79 197.499 858.79 193.411C858.79 185.203 858.79 175.451 858.716 164.579C858.716 159.152 858.716 153.471 858.716 147.619V140.835C858.686 140.038 858.751 139.239 858.909 138.461C859.261 136.857 860.07 135.433 861.209 134.413C862.347 133.394 863.749 132.837 865.195 132.83C866.64 132.765 868.065 133.235 869.258 134.17C870.435 135.113 871.31 136.471 871.749 138.037C871.944 138.808 872.039 139.608 872.03 140.411V147.195C872.03 153.097 872.03 158.779 872.03 164.155C872.03 174.976 872.03 184.728 871.956 192.987C871.956 197.075 871.956 200.789 871.956 204.045C871.956 205.741 871.956 207.183 871.956 208.591C871.941 209.901 871.608 211.182 870.992 212.288C870.159 213.833 868.828 214.942 867.286 215.375C866.579 215.617 865.833 215.67 865.106 215.527Z" fill="#263238"/>
<path d="M888.369 215.527C888.369 215.527 888.933 215.527 889.941 215.188C891.201 214.788 892.311 213.922 893.096 212.726C893.882 211.53 894.3 210.07 894.285 208.574C894.285 207.166 894.285 205.656 894.285 204.028C894.285 200.772 894.285 197.058 894.285 192.97C894.285 184.762 894.285 175.01 894.196 164.138C894.196 158.728 894.196 153.046 894.196 147.178V142.735C894.282 141.275 894.193 139.808 893.929 138.376C893.528 136.991 892.747 135.791 891.702 134.953C890.657 134.116 889.404 133.687 888.129 133.728C886.854 133.77 885.625 134.281 884.624 135.186C883.623 136.09 882.903 137.34 882.572 138.749C882.392 140.209 882.332 141.686 882.394 143.159V147.551C882.394 153.437 882.394 159.118 882.394 164.511C882.394 175.332 882.394 185.084 882.305 193.343C882.305 197.431 882.305 201.128 882.305 204.401C882.305 206.097 882.305 207.556 882.305 208.93C882.374 210.145 882.727 211.317 883.328 212.322C884.194 213.755 885.493 214.77 886.976 215.171C887.999 215.408 888.562 215.358 888.562 215.408C888.027 215.513 887.481 215.513 886.946 215.408C885.606 215.115 884.388 214.322 883.484 213.153C882.58 211.984 882.04 210.504 881.949 208.947C881.949 207.522 881.949 206.03 881.949 204.401C881.949 201.128 881.949 197.431 881.949 193.343C881.949 185.135 881.949 175.383 881.949 164.511C881.949 159.084 881.949 153.403 881.949 147.551V140.767C881.92 139.97 881.984 139.171 882.142 138.393C882.494 136.789 883.304 135.365 884.442 134.346C885.58 133.326 886.983 132.769 888.429 132.762C889.87 132.684 891.293 133.152 892.478 134.093C893.663 135.035 894.543 136.397 894.982 137.969C895.177 138.74 895.272 139.54 895.264 140.343V147.127C895.264 153.03 895.264 158.711 895.264 164.087C895.264 174.908 895.264 184.66 895.264 192.919C895.264 197.007 895.264 200.721 895.264 203.977C895.264 205.673 895.264 207.115 895.264 208.523C895.249 209.834 894.915 211.114 894.3 212.22C893.466 213.765 892.135 214.874 890.593 215.307C889.878 215.58 889.115 215.656 888.369 215.527Z" fill="#263238"/>
<path d="M866.292 80.187C866.741 80.146 867.193 80.146 867.642 80.187L871.63 80.3058C872.505 80.3058 873.498 80.3058 874.595 80.4584L878.109 81.035L882.216 81.6965L886.798 83.0024C894.692 85.2813 902.206 89.0285 909.038 94.0942C919.155 101.445 927.665 111.35 933.916 123.048C940.166 134.746 943.991 147.926 945.096 161.578C945.404 165.667 945.473 169.775 945.304 173.874C945.185 175.96 945.215 178.063 944.948 180.166C944.681 182.269 944.399 184.372 944.118 186.509C942.732 195.224 940.234 203.658 936.704 211.542C932.9 219.805 928.06 227.387 922.337 234.048C916.279 240.883 909.332 246.605 901.743 251.008C893.893 255.611 885.396 258.596 876.641 259.827C874.423 260.213 872.184 260.428 869.94 260.472C867.69 260.67 865.433 260.715 863.179 260.608C848.721 259.969 834.693 254.8 822.628 245.666L823.443 245.768L795.955 258.386L794.338 259.132L794.798 257.199L802.879 223.584L803.012 224.398C795.553 213.089 790.53 199.928 788.348 185.984C787.296 179.465 786.942 172.824 787.296 166.208C787.348 163.042 787.606 159.884 788.067 156.761C788.289 155.218 788.497 153.675 788.704 152.148C788.912 150.622 789.342 149.18 789.653 147.705C794.278 127.082 805.141 109.002 820.315 96.6722C825.926 92.0589 832.068 88.3549 838.566 85.6651L842.673 83.9691L846.602 82.765L850.161 81.7474C851.317 81.493 852.415 81.3573 853.452 81.1877C855.528 80.8824 857.352 80.4754 858.953 80.3736L863.001 80.221H865.462C865.743 80.1947 866.026 80.1947 866.307 80.221C866.033 80.3126 865.748 80.3583 865.462 80.3566L863.016 80.5771L858.998 80.8824C857.411 81.035 855.602 81.493 853.541 81.8322C838.629 84.7868 824.787 92.6259 813.692 104.399C802.597 116.173 794.725 131.375 791.032 148.163C790.736 149.621 790.35 151.063 790.113 152.538C789.876 154.014 789.712 155.54 789.52 157.067C789.074 160.134 788.831 163.235 788.793 166.344C788.482 172.805 788.856 179.286 789.905 185.644C792.091 199.29 797.047 212.157 804.376 223.211L804.613 223.601L804.509 224.042C801.92 234.907 799.246 246.124 796.488 257.69L795.332 256.503C804.287 252.376 813.445 248.159 822.806 243.851L823.236 243.648L823.621 243.936C835.424 252.851 849.135 257.9 863.268 258.538C865.472 258.638 867.68 258.592 869.88 258.403C872.07 258.364 874.255 258.155 876.419 257.775C884.981 256.588 893.292 253.683 900.972 249.193C908.398 244.901 915.204 239.33 921.151 232.674C926.735 226.136 931.464 218.71 935.192 210.626C938.697 202.916 941.195 194.659 942.605 186.119C942.882 184.027 943.164 181.958 943.451 179.912C943.717 177.86 943.688 175.791 943.821 173.755C943.993 169.73 943.933 165.696 943.643 161.68C942.602 148.236 938.895 135.241 932.803 123.682C926.712 112.124 918.396 102.306 908.489 94.9762C901.78 89.9117 894.401 86.1204 886.635 83.7486L882.112 82.3749L878.05 81.6117L874.551 80.9502C873.483 80.8146 872.505 80.7806 871.585 80.7128L867.612 80.3736C867.168 80.3563 866.727 80.2939 866.292 80.187Z" fill="#263238"/>
</svg>
